<mxfile host="65bd71144e">
    <diagram id="Vvgcr-bU7BtTaMTclTcW" name="Page-1">
        <mxGraphModel dx="1451" dy="3297" grid="1" gridSize="10" guides="1" tooltips="1" connect="1" arrows="1" fold="1" page="1" pageScale="1" pageWidth="1169" pageHeight="827" math="0" shadow="0">
            <root>
                <mxCell id="0"/>
                <mxCell id="1" parent="0"/>
                <mxCell id="749" value="DEFINES" style="edgeStyle=none;html=1;dashed=1;" parent="1" source="109" target="723" edge="1">
                    <mxGeometry relative="1" as="geometry">
                        <Array as="points"/>
                    </mxGeometry>
                </mxCell>
                <mxCell id="776" value="DEFINES" style="edgeStyle=none;html=1;dashed=1;" parent="1" source="109" target="830" edge="1">
                    <mxGeometry relative="1" as="geometry">
                        <mxPoint x="4378.128571366655" y="-1619.8444882064941" as="sourcePoint"/>
                    </mxGeometry>
                </mxCell>
                <mxCell id="257" value="REL_TARGET" style="edgeStyle=none;html=1;" parent="1" source="258" target="883" edge="1">
                    <mxGeometry relative="1" as="geometry">
                        <mxPoint x="1100" y="3290" as="targetPoint"/>
                    </mxGeometry>
                </mxCell>
                <mxCell id="3" value="DEFINES" style="edgeStyle=none;html=1;dashed=1;" parent="1" source="109" target="161" edge="1">
                    <mxGeometry relative="1" as="geometry"/>
                </mxCell>
                <mxCell id="4" value="DEFINES" style="edgeStyle=none;html=1;dashed=1;" parent="1" source="109" target="157" edge="1">
                    <mxGeometry relative="1" as="geometry"/>
                </mxCell>
                <mxCell id="5" value="DEFINES" style="edgeStyle=none;html=1;dashed=1;" parent="1" source="109" target="172" edge="1">
                    <mxGeometry relative="1" as="geometry">
                        <mxPoint x="4951.6001091898015" y="1109.9962182084837" as="sourcePoint"/>
                        <mxPoint x="4453.002486339825" y="1783.5508965573417" as="targetPoint"/>
                    </mxGeometry>
                </mxCell>
                <mxCell id="6" value="DEFINES" style="edgeStyle=none;html=1;dashed=1;" parent="1" source="109" target="169" edge="1">
                    <mxGeometry relative="1" as="geometry"/>
                </mxCell>
                <mxCell id="7" value="DEFINES" style="edgeStyle=none;html=1;dashed=1;" parent="1" source="109" target="165" edge="1">
                    <mxGeometry relative="1" as="geometry"/>
                </mxCell>
                <mxCell id="10" value="HAS_TYPE" style="edgeStyle=none;html=1;" parent="1" source="13" target="12" edge="1">
                    <mxGeometry relative="1" as="geometry"/>
                </mxCell>
                <mxCell id="11" value="HAS_PROPERTY" style="edgeStyle=none;html=1;" parent="1" source="12" target="110" edge="1">
                    <mxGeometry relative="1" as="geometry"/>
                </mxCell>
                <mxCell id="12" value="&lt;font style=&quot;font-size: 13px&quot; color=&quot;#000000&quot;&gt;&lt;b&gt;Type&lt;/b&gt;&lt;br&gt;- name: &quot;&lt;/font&gt;&lt;span style=&quot;color: rgb(0 , 0 , 0) ; font-size: 13px&quot;&gt;Constant&lt;/span&gt;&lt;font style=&quot;font-size: 13px&quot; color=&quot;#000000&quot;&gt;&quot;&lt;br&gt;&lt;/font&gt;" style="ellipse;whiteSpace=wrap;html=1;aspect=fixed;direction=west;fillColor=#ffe6cc;strokeColor=#d79b00;" parent="1" vertex="1">
                    <mxGeometry x="1000" y="3800" width="120" height="120" as="geometry"/>
                </mxCell>
                <mxCell id="900" value="SUBCLASS_OF" style="edgeStyle=none;html=1;" parent="1" source="13" target="882" edge="1">
                    <mxGeometry x="-0.3193" y="-3" relative="1" as="geometry">
                        <mxPoint x="-1" as="offset"/>
                    </mxGeometry>
                </mxCell>
                <mxCell id="13" value="&lt;b&gt;&lt;font style=&quot;font-size: 13px&quot; color=&quot;#000000&quot;&gt;NodeDef&lt;br&gt;&lt;/font&gt;&lt;/b&gt;&lt;span style=&quot;color: rgb(0 , 0 , 0) ; font-size: 13px&quot;&gt;- name: &quot;Constant&quot;&lt;/span&gt;&lt;b&gt;&lt;font style=&quot;font-size: 13px&quot; color=&quot;#000000&quot;&gt;&lt;br&gt;&lt;/font&gt;&lt;/b&gt;" style="ellipse;whiteSpace=wrap;html=1;aspect=fixed;direction=west;strokeColor=#9673a6;fillColor=#CCFF99;" parent="1" vertex="1">
                    <mxGeometry x="1000" y="3600" width="120" height="120" as="geometry"/>
                </mxCell>
                <mxCell id="21" value="&lt;font style=&quot;font-size: 13px&quot; color=&quot;#000000&quot;&gt;&lt;b&gt;Type&lt;/b&gt;&lt;br&gt;- name: &quot;&lt;/font&gt;&lt;span style=&quot;color: rgb(0 , 0 , 0) ; font-size: 13px&quot;&gt;NEXT&lt;/span&gt;&lt;font style=&quot;font-size: 13px&quot; color=&quot;#000000&quot;&gt;&quot;&lt;br&gt;&lt;/font&gt;" style="ellipse;whiteSpace=wrap;html=1;aspect=fixed;direction=west;fillColor=#ffe6cc;strokeColor=#d79b00;" parent="1" vertex="1">
                    <mxGeometry x="1000" width="120" height="120" as="geometry"/>
                </mxCell>
                <mxCell id="25" value="&lt;font style=&quot;font-size: 13px&quot; color=&quot;#000000&quot;&gt;&lt;b&gt;Type&lt;/b&gt;&lt;br&gt;- name: &quot;HAS_BINDING&quot;&lt;br&gt;&lt;/font&gt;" style="ellipse;whiteSpace=wrap;html=1;aspect=fixed;direction=west;fillColor=#ffe6cc;strokeColor=#d79b00;" parent="1" vertex="1">
                    <mxGeometry x="1240" y="1800" width="120" height="120" as="geometry"/>
                </mxCell>
                <mxCell id="34" value="REL_TARGET" style="edgeStyle=none;html=1;" parent="1" source="36" target="116" edge="1">
                    <mxGeometry relative="1" as="geometry"/>
                </mxCell>
                <mxCell id="35" value="HAS_TYPE" style="edgeStyle=none;html=1;" parent="1" source="36" target="25" edge="1">
                    <mxGeometry relative="1" as="geometry"/>
                </mxCell>
                <mxCell id="880" value="&lt;span style=&quot;font-family: &amp;#34;helvetica&amp;#34;&quot;&gt;REL_SOURCE&lt;/span&gt;" style="edgeStyle=none;html=1;" parent="1" source="36" target="370" edge="1">
                    <mxGeometry relative="1" as="geometry"/>
                </mxCell>
                <mxCell id="36" value="&lt;b&gt;&lt;font style=&quot;font-size: 13px&quot; color=&quot;#000000&quot;&gt;RelDef&lt;br&gt;&lt;/font&gt;&lt;/b&gt;&lt;span style=&quot;color: rgb(0 , 0 , 0) ; font-size: 13px&quot;&gt;- name: &quot;HAS_BINDING&quot;&lt;/span&gt;&lt;b&gt;&lt;font style=&quot;font-size: 13px&quot; color=&quot;#000000&quot;&gt;&lt;br&gt;&lt;/font&gt;&lt;/b&gt;" style="ellipse;whiteSpace=wrap;html=1;aspect=fixed;direction=west;strokeColor=#9673a6;fillColor=#CCFF99;" parent="1" vertex="1">
                    <mxGeometry x="1480" y="1800" width="120" height="120" as="geometry"/>
                </mxCell>
                <mxCell id="41" value="HAS_TYPE" style="edgeStyle=none;html=1;" parent="1" edge="1">
                    <mxGeometry relative="1" as="geometry">
                        <mxPoint x="850.9008646412062" y="5008.5691088505955" as="sourcePoint"/>
                    </mxGeometry>
                </mxCell>
                <mxCell id="53" value="DEFINES" style="edgeStyle=none;html=1;dashed=1;" parent="1" source="109" target="116" edge="1">
                    <mxGeometry relative="1" as="geometry"/>
                </mxCell>
                <mxCell id="59" value="DEFINES" style="edgeStyle=none;html=1;dashed=1;" parent="1" source="109" target="36" edge="1">
                    <mxGeometry relative="1" as="geometry"/>
                </mxCell>
                <mxCell id="60" value="DEFINES" style="edgeStyle=none;html=1;dashed=1;" parent="1" source="109" target="25" edge="1">
                    <mxGeometry relative="1" as="geometry"/>
                </mxCell>
                <mxCell id="65" value="DEFINES" style="edgeStyle=none;html=1;dashed=1;" parent="1" source="109" target="21" edge="1">
                    <mxGeometry relative="1" as="geometry"/>
                </mxCell>
                <mxCell id="66" value="DEFINES" style="edgeStyle=none;html=1;dashed=1;" parent="1" source="109" target="12" edge="1">
                    <mxGeometry relative="1" as="geometry"/>
                </mxCell>
                <mxCell id="67" value="DEFINES" style="edgeStyle=none;html=1;dashed=1;" parent="1" source="109" target="13" edge="1">
                    <mxGeometry relative="1" as="geometry"/>
                </mxCell>
                <mxCell id="70" value="DEFINES" style="edgeStyle=none;html=1;dashed=1;" parent="1" source="109" target="132" edge="1">
                    <mxGeometry relative="1" as="geometry"/>
                </mxCell>
                <mxCell id="73" value="DEFINES" style="edgeStyle=none;html=1;dashed=1;" parent="1" source="109" target="119" edge="1">
                    <mxGeometry relative="1" as="geometry"/>
                </mxCell>
                <mxCell id="75" value="DEFINES" style="edgeStyle=none;html=1;dashed=1;" parent="1" source="109" target="137" edge="1">
                    <mxGeometry relative="1" as="geometry"/>
                </mxCell>
                <mxCell id="77" value="DEFINES" style="edgeStyle=none;html=1;dashed=1;" parent="1" source="109" target="135" edge="1">
                    <mxGeometry relative="1" as="geometry"/>
                </mxCell>
                <mxCell id="80" value="DEFINES" style="edgeStyle=none;html=1;dashed=1;" parent="1" source="109" target="258" edge="1">
                    <mxGeometry relative="1" as="geometry"/>
                </mxCell>
                <mxCell id="82" value="DEFINES" style="edgeStyle=none;html=1;dashed=1;" parent="1" source="109" target="254" edge="1">
                    <mxGeometry relative="1" as="geometry"/>
                </mxCell>
                <mxCell id="83" value="DEFINES" style="edgeStyle=none;html=1;dashed=1;" parent="1" source="109" target="228" edge="1">
                    <mxGeometry relative="1" as="geometry"/>
                </mxCell>
                <mxCell id="86" value="DEFINES" style="edgeStyle=none;html=1;dashed=1;" parent="1" source="109" target="247" edge="1">
                    <mxGeometry relative="1" as="geometry"/>
                </mxCell>
                <mxCell id="93" value="DEFINES" style="edgeStyle=none;html=1;dashed=1;" parent="1" source="109" target="210" edge="1">
                    <mxGeometry relative="1" as="geometry"/>
                </mxCell>
                <mxCell id="94" value="DEFINES" style="edgeStyle=none;html=1;dashed=1;" parent="1" source="109" target="233" edge="1">
                    <mxGeometry relative="1" as="geometry"/>
                </mxCell>
                <mxCell id="95" value="DEFINES" style="edgeStyle=none;html=1;dashed=1;" parent="1" source="109" target="230" edge="1">
                    <mxGeometry relative="1" as="geometry"/>
                </mxCell>
                <mxCell id="96" value="DEFINES" style="edgeStyle=none;html=1;dashed=1;" parent="1" source="109" target="237" edge="1">
                    <mxGeometry relative="1" as="geometry"/>
                </mxCell>
                <mxCell id="97" value="DEFINES" style="edgeStyle=none;html=1;dashed=1;" parent="1" source="109" target="214" edge="1">
                    <mxGeometry relative="1" as="geometry"/>
                </mxCell>
                <mxCell id="106" value="DEFINES" style="edgeStyle=none;html=1;dashed=1;" parent="1" source="109" target="290" edge="1">
                    <mxGeometry relative="1" as="geometry"/>
                </mxCell>
                <mxCell id="108" value="DEFINES" style="edgeStyle=none;html=1;dashed=1;" parent="1" source="109" target="260" edge="1">
                    <mxGeometry relative="1" as="geometry"/>
                </mxCell>
                <mxCell id="368" value="DEFINES" style="edgeStyle=none;html=1;dashed=1;" parent="1" source="109" target="363" edge="1">
                    <mxGeometry relative="1" as="geometry">
                        <mxPoint x="3940" y="3740" as="targetPoint"/>
                    </mxGeometry>
                </mxCell>
                <mxCell id="449" value="DEFINES" style="edgeStyle=none;html=1;dashed=1;" parent="1" source="109" target="370" edge="1">
                    <mxGeometry relative="1" as="geometry"/>
                </mxCell>
                <mxCell id="450" value="DEFINES" style="edgeStyle=none;html=1;dashed=1;" parent="1" source="109" target="361" edge="1">
                    <mxGeometry relative="1" as="geometry"/>
                </mxCell>
                <mxCell id="453" value="DEFINES" style="edgeStyle=none;html=1;dashed=1;" parent="1" source="109" target="375" edge="1">
                    <mxGeometry relative="1" as="geometry"/>
                </mxCell>
                <mxCell id="458" value="DEFINES" style="edgeStyle=none;html=1;dashed=1;" parent="1" source="109" target="420" edge="1">
                    <mxGeometry relative="1" as="geometry"/>
                </mxCell>
                <mxCell id="464" value="DEFINES" style="edgeStyle=none;html=1;dashed=1;" parent="1" source="109" target="383" edge="1">
                    <mxGeometry relative="1" as="geometry"/>
                </mxCell>
                <mxCell id="465" value="DEFINES" style="edgeStyle=none;html=1;dashed=1;" parent="1" source="109" target="400" edge="1">
                    <mxGeometry relative="1" as="geometry"/>
                </mxCell>
                <mxCell id="696" value="&lt;span style=&quot;font-size: 11px&quot;&gt;DEFINES&lt;/span&gt;" style="edgeStyle=none;html=1;dashed=1;fontSize=13;" parent="1" source="109" target="597" edge="1">
                    <mxGeometry relative="1" as="geometry"/>
                </mxCell>
                <mxCell id="698" value="&lt;span style=&quot;font-size: 11px&quot;&gt;DEFINES&lt;/span&gt;" style="edgeStyle=none;html=1;dashed=1;fontSize=13;" parent="1" source="109" target="608" edge="1">
                    <mxGeometry relative="1" as="geometry"/>
                </mxCell>
                <mxCell id="701" value="&lt;span style=&quot;font-size: 11px&quot;&gt;DEFINES&lt;/span&gt;" style="edgeStyle=none;html=1;dashed=1;fontSize=13;" parent="1" source="109" target="596" edge="1">
                    <mxGeometry relative="1" as="geometry"/>
                </mxCell>
                <mxCell id="702" value="&lt;span style=&quot;font-size: 11px&quot;&gt;DEFINES&lt;/span&gt;" style="edgeStyle=none;html=1;dashed=1;fontSize=13;" parent="1" source="109" target="607" edge="1">
                    <mxGeometry relative="1" as="geometry"/>
                </mxCell>
                <mxCell id="703" value="&lt;span style=&quot;font-size: 11px&quot;&gt;DEFINES&lt;/span&gt;" style="edgeStyle=none;html=1;dashed=1;fontSize=13;" parent="1" source="109" target="611" edge="1">
                    <mxGeometry relative="1" as="geometry"/>
                </mxCell>
                <mxCell id="706" value="&lt;span style=&quot;font-size: 11px&quot;&gt;DEFINES&lt;/span&gt;" style="edgeStyle=none;html=1;dashed=1;fontSize=13;" parent="1" source="109" target="665" edge="1">
                    <mxGeometry relative="1" as="geometry"/>
                </mxCell>
                <mxCell id="707" value="&lt;span style=&quot;font-size: 11px&quot;&gt;DEFINES&lt;/span&gt;" style="edgeStyle=none;html=1;dashed=1;fontSize=13;" parent="1" source="109" target="667" edge="1">
                    <mxGeometry relative="1" as="geometry"/>
                </mxCell>
                <mxCell id="708" value="&lt;span style=&quot;font-size: 11px&quot;&gt;DEFINES&lt;/span&gt;" style="edgeStyle=none;html=1;dashed=1;fontSize=13;" parent="1" source="109" target="666" edge="1">
                    <mxGeometry relative="1" as="geometry"/>
                </mxCell>
                <mxCell id="722" value="DEFINES" style="edgeStyle=none;html=1;dashed=1;" parent="1" source="109" target="713" edge="1">
                    <mxGeometry relative="1" as="geometry">
                        <mxPoint x="60" y="4490.000000000002" as="targetPoint"/>
                    </mxGeometry>
                </mxCell>
                <mxCell id="744" value="DEFINES" style="edgeStyle=none;html=1;dashed=1;" parent="1" source="109" target="729" edge="1">
                    <mxGeometry relative="1" as="geometry"/>
                </mxCell>
                <mxCell id="754" value="DEFINES" style="edgeStyle=none;html=1;dashed=1;" parent="1" source="109" target="735" edge="1">
                    <mxGeometry relative="1" as="geometry"/>
                </mxCell>
                <mxCell id="901" value="DEFINES" style="edgeStyle=none;html=1;dashed=1;" parent="1" source="109" target="842" edge="1">
                    <mxGeometry relative="1" as="geometry"/>
                </mxCell>
                <mxCell id="902" value="DEFINES" style="edgeStyle=none;html=1;dashed=1;" parent="1" source="109" target="846" edge="1">
                    <mxGeometry relative="1" as="geometry"/>
                </mxCell>
                <mxCell id="903" value="DEFINES" style="edgeStyle=none;html=1;dashed=1;" parent="1" source="109" target="851" edge="1">
                    <mxGeometry relative="1" as="geometry"/>
                </mxCell>
                <mxCell id="904" value="DEFINES" style="edgeStyle=none;html=1;dashed=1;" parent="1" source="109" target="850" edge="1">
                    <mxGeometry relative="1" as="geometry"/>
                </mxCell>
                <mxCell id="905" value="DEFINES" style="edgeStyle=none;html=1;dashed=1;" parent="1" source="109" target="855" edge="1">
                    <mxGeometry relative="1" as="geometry"/>
                </mxCell>
                <mxCell id="906" value="DEFINES" style="edgeStyle=none;html=1;dashed=1;" parent="1" source="109" target="870" edge="1">
                    <mxGeometry relative="1" as="geometry"/>
                </mxCell>
                <mxCell id="907" value="DEFINES" style="edgeStyle=none;html=1;dashed=1;" parent="1" source="109" target="863" edge="1">
                    <mxGeometry relative="1" as="geometry"/>
                </mxCell>
                <mxCell id="908" value="DEFINES" style="edgeStyle=none;html=1;dashed=1;" parent="1" source="109" target="858" edge="1">
                    <mxGeometry relative="1" as="geometry"/>
                </mxCell>
                <mxCell id="909" value="DEFINES" style="edgeStyle=none;html=1;dashed=1;" parent="1" source="109" target="854" edge="1">
                    <mxGeometry relative="1" as="geometry"/>
                </mxCell>
                <mxCell id="910" value="DEFINES" style="edgeStyle=none;html=1;dashed=1;" parent="1" source="109" target="883" edge="1">
                    <mxGeometry relative="1" as="geometry"/>
                </mxCell>
                <mxCell id="911" value="DEFINES" style="edgeStyle=none;html=1;dashed=1;" parent="1" source="109" target="882" edge="1">
                    <mxGeometry relative="1" as="geometry"/>
                </mxCell>
                <mxCell id="924" value="DEFINES" style="edgeStyle=none;html=1;dashed=1;" parent="1" source="109" target="921" edge="1">
                    <mxGeometry relative="1" as="geometry">
                        <mxPoint x="2670" y="1270" as="targetPoint"/>
                    </mxGeometry>
                </mxCell>
                <mxCell id="109" value="&lt;font color=&quot;#000000&quot;&gt;&lt;b style=&quot;font-size: 13px&quot;&gt;Metagraph&lt;/b&gt;&lt;br&gt;&lt;span style=&quot;font-size: 13px&quot;&gt;- name: &quot;Computation&quot;&lt;/span&gt;&lt;br&gt;&lt;span style=&quot;font-size: 13px&quot;&gt;- uuid: &quot;2377b64e-6d8b-4837-bee6-dd59f1330251&quot;&lt;/span&gt;&lt;br&gt;&lt;/font&gt;" style="ellipse;whiteSpace=wrap;html=1;aspect=fixed;direction=west;strokeColor=#56517e;fillColor=#d0cee2;" parent="1" vertex="1">
                    <mxGeometry x="3360" y="-1600" width="120" height="120" as="geometry"/>
                </mxCell>
                <mxCell id="110" value="&lt;font style=&quot;font-size: 13px&quot; color=&quot;#000000&quot;&gt;&lt;b&gt;Property&lt;/b&gt;&lt;br&gt;- name: &quot;value&quot;&lt;br&gt;- type: &quot;String&quot;&lt;br&gt;&lt;/font&gt;" style="ellipse;whiteSpace=wrap;html=1;aspect=fixed;direction=west;strokeColor=#d79b00;fillColor=#FF9999;" parent="1" vertex="1">
                    <mxGeometry x="1240" y="3800" width="120" height="120" as="geometry"/>
                </mxCell>
                <mxCell id="116" value="&lt;b&gt;&lt;font style=&quot;font-size: 13px&quot; color=&quot;#000000&quot;&gt;NodeDef&lt;br&gt;&lt;/font&gt;&lt;/b&gt;&lt;span style=&quot;color: rgb(0 , 0 , 0) ; font-size: 13px&quot;&gt;- name: &quot;Binding&quot;&lt;/span&gt;&lt;b&gt;&lt;font style=&quot;font-size: 13px&quot; color=&quot;#000000&quot;&gt;&lt;br&gt;&lt;/font&gt;&lt;/b&gt;" style="ellipse;whiteSpace=wrap;html=1;aspect=fixed;direction=west;strokeColor=#9673a6;fillColor=#CCFF99;" parent="1" vertex="1">
                    <mxGeometry x="760" y="2800" width="120" height="120" as="geometry"/>
                </mxCell>
                <mxCell id="898" value="SUBCLASS_OF" style="edgeStyle=none;html=1;" parent="1" source="119" target="882" edge="1">
                    <mxGeometry relative="1" as="geometry"/>
                </mxCell>
                <mxCell id="899" value="SUBCLASS_OF" style="edgeStyle=none;html=1;" parent="1" source="119" target="883" edge="1">
                    <mxGeometry x="-0.1306" relative="1" as="geometry">
                        <mxPoint x="1" as="offset"/>
                    </mxGeometry>
                </mxCell>
                <mxCell id="119" value="&lt;b&gt;&lt;font style=&quot;font-size: 13px&quot; color=&quot;#000000&quot;&gt;NodeDef&lt;br&gt;&lt;/font&gt;&lt;/b&gt;&lt;span style=&quot;color: rgb(0 , 0 , 0) ; font-size: 13px&quot;&gt;- name: &quot;PropVar&quot;&lt;/span&gt;&lt;b&gt;&lt;font style=&quot;font-size: 13px&quot; color=&quot;#000000&quot;&gt;&lt;br&gt;&lt;/font&gt;&lt;/b&gt;" style="ellipse;whiteSpace=wrap;html=1;aspect=fixed;direction=west;strokeColor=#9673a6;fillColor=#CCFF99;" parent="1" vertex="1">
                    <mxGeometry x="520" y="3600" width="120" height="120" as="geometry"/>
                </mxCell>
                <mxCell id="120" value="HAS_TYPE" style="edgeStyle=none;html=1;" parent="1" edge="1">
                    <mxGeometry relative="1" as="geometry">
                        <mxPoint x="866.0093613083222" y="4821.488460534516" as="sourcePoint"/>
                    </mxGeometry>
                </mxCell>
                <mxCell id="131" value="REL_SOURCE" style="edgeStyle=none;html=1;" parent="1" source="132" target="119" edge="1">
                    <mxGeometry relative="1" as="geometry"/>
                </mxCell>
                <mxCell id="349" value="REL_TARGET" style="edgeStyle=none;html=1;" parent="1" source="132" target="793" edge="1">
                    <mxGeometry relative="1" as="geometry"/>
                </mxCell>
                <mxCell id="132" value="&lt;b&gt;&lt;font style=&quot;font-size: 13px&quot; color=&quot;#000000&quot;&gt;RelDef&lt;br&gt;&lt;/font&gt;&lt;/b&gt;&lt;span style=&quot;color: rgb(0 , 0 , 0) ; font-size: 13px&quot;&gt;- name: &quot;OF_NODE&quot;&lt;/span&gt;&lt;b&gt;&lt;font style=&quot;font-size: 13px&quot; color=&quot;#000000&quot;&gt;&lt;br&gt;&lt;/font&gt;&lt;/b&gt;" style="ellipse;whiteSpace=wrap;html=1;aspect=fixed;direction=west;strokeColor=#9673a6;fillColor=#CCFF99;" parent="1" vertex="1">
                    <mxGeometry x="280" y="3600" width="120" height="120" as="geometry"/>
                </mxCell>
                <mxCell id="134" value="REL_SOURCE" style="edgeStyle=none;html=1;" parent="1" source="135" target="119" edge="1">
                    <mxGeometry relative="1" as="geometry"/>
                </mxCell>
                <mxCell id="350" value="REL_TARGET" style="edgeStyle=none;html=1;" parent="1" source="135" target="780" edge="1">
                    <mxGeometry relative="1" as="geometry"/>
                </mxCell>
                <mxCell id="135" value="&lt;b&gt;&lt;font style=&quot;font-size: 13px&quot; color=&quot;#000000&quot;&gt;RelDef&lt;br&gt;&lt;/font&gt;&lt;/b&gt;&lt;span style=&quot;color: rgb(0 , 0 , 0) ; font-size: 13px&quot;&gt;- name: &quot;OF_REL&quot;&lt;/span&gt;&lt;b&gt;&lt;font style=&quot;font-size: 13px&quot; color=&quot;#000000&quot;&gt;&lt;br&gt;&lt;/font&gt;&lt;/b&gt;" style="ellipse;whiteSpace=wrap;html=1;aspect=fixed;direction=west;strokeColor=#9673a6;fillColor=#CCFF99;" parent="1" vertex="1">
                    <mxGeometry x="760" y="3600" width="120" height="120" as="geometry"/>
                </mxCell>
                <mxCell id="136" value="REL_SOURCE" style="edgeStyle=none;html=1;" parent="1" source="137" target="119" edge="1">
                    <mxGeometry relative="1" as="geometry"/>
                </mxCell>
                <mxCell id="355" value="REL_TARGET" style="edgeStyle=none;html=1;" parent="1" source="137" target="353" edge="1">
                    <mxGeometry relative="1" as="geometry"/>
                </mxCell>
                <mxCell id="137" value="&lt;b&gt;&lt;font style=&quot;font-size: 13px&quot; color=&quot;#000000&quot;&gt;RelDef&lt;br&gt;&lt;/font&gt;&lt;/b&gt;&lt;span style=&quot;color: rgb(0 , 0 , 0) ; font-size: 13px&quot;&gt;- name: &quot;DEFINED_BY&quot;&lt;/span&gt;&lt;b&gt;&lt;font style=&quot;font-size: 13px&quot; color=&quot;#000000&quot;&gt;&lt;br&gt;&lt;/font&gt;&lt;/b&gt;" style="ellipse;whiteSpace=wrap;html=1;aspect=fixed;direction=west;strokeColor=#9673a6;fillColor=#CCFF99;" parent="1" vertex="1">
                    <mxGeometry x="520" y="3800" width="120" height="120" as="geometry"/>
                </mxCell>
                <mxCell id="142" value="DEFINES" style="edgeStyle=none;html=1;dashed=1;" parent="1" source="109" target="153" edge="1">
                    <mxGeometry relative="1" as="geometry"/>
                </mxCell>
                <mxCell id="143" value="DEFINES" style="edgeStyle=none;html=1;dashed=1;" parent="1" source="109" target="171" edge="1">
                    <mxGeometry relative="1" as="geometry"/>
                </mxCell>
                <mxCell id="144" value="DEFINES" style="edgeStyle=none;html=1;dashed=1;" parent="1" source="109" target="173" edge="1">
                    <mxGeometry relative="1" as="geometry"/>
                </mxCell>
                <mxCell id="145" value="DEFINES" style="edgeStyle=none;html=1;dashed=1;" parent="1" source="109" target="150" edge="1">
                    <mxGeometry relative="1" as="geometry"/>
                </mxCell>
                <mxCell id="149" value="HAS_TYPE" style="edgeStyle=none;html=1;" parent="1" source="150" target="840" edge="1">
                    <mxGeometry relative="1" as="geometry">
                        <mxPoint x="2000" y="5610" as="targetPoint"/>
                    </mxGeometry>
                </mxCell>
                <mxCell id="150" value="&lt;b&gt;&lt;font style=&quot;font-size: 13px&quot; color=&quot;#000000&quot;&gt;NodeDef&lt;br&gt;&lt;/font&gt;&lt;/b&gt;&lt;span style=&quot;color: rgb(0 , 0 , 0) ; font-size: 13px&quot;&gt;- name: &quot;Function&quot;&lt;br&gt;&lt;/span&gt;&lt;font color=&quot;#000000&quot;&gt;&lt;span style=&quot;font-size: 13px&quot;&gt;- uuid: &quot;b9c2b5e7-94b3-40ff-9e12-ca34df1147f1&quot;&lt;/span&gt;&lt;br&gt;&lt;/font&gt;" style="ellipse;whiteSpace=wrap;html=1;aspect=fixed;direction=west;strokeColor=#9673a6;fillColor=#CCFF99;" parent="1" vertex="1">
                    <mxGeometry x="2320" y="3200" width="120" height="120" as="geometry"/>
                </mxCell>
                <mxCell id="151" value="HAS_TYPE" style="edgeStyle=none;html=1;" parent="1" source="153" target="840" edge="1">
                    <mxGeometry relative="1" as="geometry">
                        <mxPoint x="2500" y="6060" as="targetPoint"/>
                    </mxGeometry>
                </mxCell>
                <mxCell id="153" value="&lt;b&gt;&lt;font style=&quot;font-size: 13px&quot; color=&quot;#000000&quot;&gt;NodeDef&lt;br&gt;&lt;/font&gt;&lt;/b&gt;&lt;span style=&quot;color: rgb(0 , 0 , 0) ; font-size: 13px&quot;&gt;- name: &quot;AggregationFunction&quot;&lt;/span&gt;&lt;b&gt;&lt;font style=&quot;font-size: 13px&quot; color=&quot;#000000&quot;&gt;&lt;br&gt;&lt;/font&gt;&lt;/b&gt;" style="ellipse;whiteSpace=wrap;html=1;aspect=fixed;direction=west;strokeColor=#9673a6;fillColor=#CCFF99;" parent="1" vertex="1">
                    <mxGeometry x="3280" y="3200" width="120" height="120" as="geometry"/>
                </mxCell>
                <mxCell id="154" value="REL_SOURCE" style="edgeStyle=none;html=1;" parent="1" source="157" target="150" edge="1">
                    <mxGeometry relative="1" as="geometry"/>
                </mxCell>
                <mxCell id="155" value="REL_TARGET" style="edgeStyle=none;html=1;" parent="1" source="157" target="171" edge="1">
                    <mxGeometry relative="1" as="geometry"/>
                </mxCell>
                <mxCell id="156" value="HAS_TYPE" style="edgeStyle=none;html=1;" parent="1" source="157" target="172" edge="1">
                    <mxGeometry relative="1" as="geometry"/>
                </mxCell>
                <mxCell id="157" value="&lt;b&gt;&lt;font style=&quot;font-size: 13px&quot; color=&quot;#000000&quot;&gt;RelDef&lt;br&gt;&lt;/font&gt;&lt;/b&gt;&lt;span style=&quot;color: rgb(0 , 0 , 0) ; font-size: 13px&quot;&gt;- name: &quot;HAS_INPUT&quot;&lt;/span&gt;&lt;b&gt;&lt;font style=&quot;font-size: 13px&quot; color=&quot;#000000&quot;&gt;&lt;br&gt;&lt;/font&gt;&lt;/b&gt;" style="ellipse;whiteSpace=wrap;html=1;aspect=fixed;direction=west;strokeColor=#9673a6;fillColor=#CCFF99;" parent="1" vertex="1">
                    <mxGeometry x="2560" y="3200" width="120" height="120" as="geometry"/>
                </mxCell>
                <mxCell id="158" value="REL_SOURCE" style="edgeStyle=none;html=1;" parent="1" source="161" target="150" edge="1">
                    <mxGeometry relative="1" as="geometry"/>
                </mxCell>
                <mxCell id="159" value="REL_TARGET" style="edgeStyle=none;html=1;" parent="1" source="161" target="363" edge="1">
                    <mxGeometry relative="1" as="geometry"/>
                </mxCell>
                <mxCell id="160" value="HAS_TYPE" style="edgeStyle=none;html=1;" parent="1" source="161" target="173" edge="1">
                    <mxGeometry relative="1" as="geometry"/>
                </mxCell>
                <mxCell id="161" value="&lt;b&gt;&lt;font style=&quot;font-size: 13px&quot; color=&quot;#000000&quot;&gt;RelDef&lt;br&gt;&lt;/font&gt;&lt;/b&gt;&lt;span style=&quot;color: rgb(0 , 0 , 0) ; font-size: 13px&quot;&gt;- name: &quot;&lt;/span&gt;&lt;span style=&quot;color: rgb(0 , 0 , 0) ; font-size: 13px&quot;&gt;HAS_OUTPUT&lt;/span&gt;&lt;span style=&quot;color: rgb(0 , 0 , 0) ; font-size: 13px&quot;&gt;&quot;&lt;/span&gt;&lt;b&gt;&lt;font style=&quot;font-size: 13px&quot; color=&quot;#000000&quot;&gt;&lt;br&gt;&lt;/font&gt;&lt;/b&gt;" style="ellipse;whiteSpace=wrap;html=1;aspect=fixed;direction=west;strokeColor=#9673a6;fillColor=#CCFF99;" parent="1" vertex="1">
                    <mxGeometry x="2560" y="3400" width="120" height="120" as="geometry"/>
                </mxCell>
                <mxCell id="162" value="REL_SOURCE" style="edgeStyle=none;html=1;" parent="1" source="165" target="153" edge="1">
                    <mxGeometry relative="1" as="geometry"/>
                </mxCell>
                <mxCell id="163" value="REL_TARGET" style="edgeStyle=none;html=1;" parent="1" source="165" target="171" edge="1">
                    <mxGeometry relative="1" as="geometry"/>
                </mxCell>
                <mxCell id="164" value="HAS_TYPE" style="edgeStyle=none;html=1;" parent="1" source="165" target="172" edge="1">
                    <mxGeometry relative="1" as="geometry"/>
                </mxCell>
                <mxCell id="165" value="&lt;b&gt;&lt;font style=&quot;font-size: 13px&quot; color=&quot;#000000&quot;&gt;RelDef&lt;br&gt;&lt;/font&gt;&lt;/b&gt;&lt;span style=&quot;color: rgb(0 , 0 , 0) ; font-size: 13px&quot;&gt;- name: &quot;HAS_INPUT&quot;&lt;/span&gt;&lt;b&gt;&lt;font style=&quot;font-size: 13px&quot; color=&quot;#000000&quot;&gt;&lt;br&gt;&lt;/font&gt;&lt;/b&gt;" style="ellipse;whiteSpace=wrap;html=1;aspect=fixed;direction=west;strokeColor=#9673a6;fillColor=#CCFF99;" parent="1" vertex="1">
                    <mxGeometry x="3040" y="3200" width="120" height="120" as="geometry"/>
                </mxCell>
                <mxCell id="166" value="REL_SOURCE" style="edgeStyle=none;html=1;" parent="1" source="169" target="153" edge="1">
                    <mxGeometry relative="1" as="geometry"/>
                </mxCell>
                <mxCell id="167" value="REL_TARGET" style="edgeStyle=none;html=1;" parent="1" source="169" target="363" edge="1">
                    <mxGeometry relative="1" as="geometry"/>
                </mxCell>
                <mxCell id="168" value="HAS_TYPE" style="edgeStyle=none;html=1;" parent="1" source="169" target="173" edge="1">
                    <mxGeometry relative="1" as="geometry"/>
                </mxCell>
                <mxCell id="169" value="&lt;b&gt;&lt;font style=&quot;font-size: 13px&quot; color=&quot;#000000&quot;&gt;RelDef&lt;br&gt;&lt;/font&gt;&lt;/b&gt;&lt;span style=&quot;color: rgb(0 , 0 , 0) ; font-size: 13px&quot;&gt;- name: &quot;HAS_OUTPUT&quot;&lt;/span&gt;&lt;b&gt;&lt;font style=&quot;font-size: 13px&quot; color=&quot;#000000&quot;&gt;&lt;br&gt;&lt;/font&gt;&lt;/b&gt;" style="ellipse;whiteSpace=wrap;html=1;aspect=fixed;direction=west;strokeColor=#9673a6;fillColor=#CCFF99;" parent="1" vertex="1">
                    <mxGeometry x="3040" y="3400" width="120" height="120" as="geometry"/>
                </mxCell>
                <mxCell id="170" value="HAS_TYPE" style="edgeStyle=none;html=1;" parent="1" source="171" target="840" edge="1">
                    <mxGeometry relative="1" as="geometry">
                        <mxPoint as="offset"/>
                        <mxPoint x="2180" y="5630" as="targetPoint"/>
                    </mxGeometry>
                </mxCell>
                <mxCell id="891" value="HAS_TYPE" style="edgeStyle=none;html=1;" parent="1" source="171" target="888" edge="1">
                    <mxGeometry relative="1" as="geometry"/>
                </mxCell>
                <mxCell id="893" value="SUBCLASS_OF" style="edgeStyle=none;html=1;" parent="1" source="171" target="882" edge="1">
                    <mxGeometry relative="1" as="geometry"/>
                </mxCell>
                <mxCell id="894" value="SUBCLASS_OF" style="edgeStyle=none;html=1;" parent="1" source="171" target="883" edge="1">
                    <mxGeometry relative="1" as="geometry"/>
                </mxCell>
                <mxCell id="171" value="&lt;b&gt;&lt;font style=&quot;font-size: 13px&quot; color=&quot;#000000&quot;&gt;NodeDef&lt;br&gt;&lt;/font&gt;&lt;/b&gt;&lt;span style=&quot;color: rgb(0 , 0 , 0) ; font-size: 13px&quot;&gt;- name: &quot;Input&quot;&lt;br&gt;&lt;/span&gt;&lt;font color=&quot;#000000&quot;&gt;&lt;span style=&quot;font-size: 13px&quot;&gt;- uuid: &quot;0b9ffc83-849a-44ee-b1a1-9128b0fa8f43&quot;&lt;/span&gt;&lt;br&gt;&lt;/font&gt;" style="ellipse;whiteSpace=wrap;html=1;aspect=fixed;direction=west;strokeColor=#9673a6;fillColor=#CCFF99;" parent="1" vertex="1">
                    <mxGeometry x="2320" y="3600" width="120" height="120" as="geometry"/>
                </mxCell>
                <mxCell id="172" value="&lt;font style=&quot;font-size: 13px&quot; color=&quot;#000000&quot;&gt;&lt;b&gt;Type&lt;/b&gt;&lt;br&gt;- name: &quot;&lt;/font&gt;&lt;span style=&quot;color: rgb(0 , 0 , 0) ; font-size: 13px&quot;&gt;HAS_INPUT&lt;/span&gt;&lt;font style=&quot;font-size: 13px&quot; color=&quot;#000000&quot;&gt;&quot;&lt;br&gt;&lt;/font&gt;" style="ellipse;whiteSpace=wrap;html=1;aspect=fixed;direction=west;fillColor=#ffe6cc;strokeColor=#d79b00;" parent="1" vertex="1">
                    <mxGeometry x="2800" y="3200" width="120" height="120" as="geometry"/>
                </mxCell>
                <mxCell id="173" value="&lt;font style=&quot;font-size: 13px&quot; color=&quot;#000000&quot;&gt;&lt;b&gt;Type&lt;/b&gt;&lt;br&gt;- name: &quot;&lt;/font&gt;&lt;span style=&quot;color: rgb(0 , 0 , 0) ; font-size: 13px&quot;&gt;HAS_OUTPUT&lt;/span&gt;&lt;font style=&quot;font-size: 13px&quot; color=&quot;#000000&quot;&gt;&quot;&lt;br&gt;&lt;/font&gt;" style="ellipse;whiteSpace=wrap;html=1;aspect=fixed;direction=west;fillColor=#ffe6cc;strokeColor=#d79b00;" parent="1" vertex="1">
                    <mxGeometry x="2800" y="3400" width="120" height="120" as="geometry"/>
                </mxCell>
                <mxCell id="185" value="HAS_TYPE" style="edgeStyle=none;html=1;" parent="1" source="187" target="190" edge="1">
                    <mxGeometry relative="1" as="geometry"/>
                </mxCell>
                <mxCell id="847" value="SUBCLASS_OF" style="edgeStyle=none;html=1;" parent="1" source="187" target="846" edge="1">
                    <mxGeometry relative="1" as="geometry"/>
                </mxCell>
                <mxCell id="187" value="&lt;b&gt;&lt;font style=&quot;font-size: 13px&quot; color=&quot;#000000&quot;&gt;NodeDef&lt;br&gt;&lt;/font&gt;&lt;/b&gt;&lt;span style=&quot;color: rgb(0 , 0 , 0) ; font-size: 13px&quot;&gt;- name: &quot;NativeCall&quot;&lt;/span&gt;&lt;b&gt;&lt;font style=&quot;font-size: 13px&quot; color=&quot;#000000&quot;&gt;&lt;br&gt;&lt;/font&gt;&lt;/b&gt;" style="ellipse;whiteSpace=wrap;html=1;aspect=fixed;direction=west;strokeColor=#9673a6;fillColor=#CCFF99;" parent="1" vertex="1">
                    <mxGeometry x="2160" y="-400" width="120" height="120" as="geometry"/>
                </mxCell>
                <mxCell id="188" value="HAS_PROPERTY" style="edgeStyle=none;html=1;" parent="1" source="190" target="191" edge="1">
                    <mxGeometry relative="1" as="geometry"/>
                </mxCell>
                <mxCell id="190" value="&lt;font style=&quot;font-size: 13px&quot; color=&quot;#000000&quot;&gt;&lt;b&gt;Type&lt;/b&gt;&lt;br&gt;- name: &quot;&lt;/font&gt;&lt;span style=&quot;color: rgb(0 , 0 , 0) ; font-size: 13px&quot;&gt;NativeCall&lt;/span&gt;&lt;font style=&quot;font-size: 13px&quot; color=&quot;#000000&quot;&gt;&quot;&lt;br&gt;&lt;/font&gt;" style="ellipse;whiteSpace=wrap;html=1;aspect=fixed;direction=west;fillColor=#ffe6cc;strokeColor=#d79b00;" parent="1" vertex="1">
                    <mxGeometry x="2160" y="-600" width="120" height="120" as="geometry"/>
                </mxCell>
                <mxCell id="191" value="&lt;font style=&quot;font-size: 13px&quot; color=&quot;#000000&quot;&gt;&lt;b&gt;Property&lt;/b&gt;&lt;br&gt;- name: &quot;cypher&quot;&lt;br&gt;- type: &quot;String&quot;&lt;br&gt;&lt;/font&gt;" style="ellipse;whiteSpace=wrap;html=1;aspect=fixed;direction=west;strokeColor=#d79b00;fillColor=#FF9999;" parent="1" vertex="1">
                    <mxGeometry x="2160" y="-800" width="120" height="120" as="geometry"/>
                </mxCell>
                <mxCell id="196" value="DEFINES" style="edgeStyle=none;html=1;dashed=1;" parent="1" source="109" target="187" edge="1">
                    <mxGeometry relative="1" as="geometry">
                        <mxPoint x="-140" y="1920" as="sourcePoint"/>
                    </mxGeometry>
                </mxCell>
                <mxCell id="200" value="DEFINES" style="edgeStyle=none;html=1;dashed=1;" parent="1" source="109" target="190" edge="1">
                    <mxGeometry relative="1" as="geometry">
                        <mxPoint x="-170" y="1940" as="sourcePoint"/>
                    </mxGeometry>
                </mxCell>
                <mxCell id="845" value="SUBCLASS_OF" style="edgeStyle=none;html=1;" parent="1" source="210" target="842" edge="1">
                    <mxGeometry relative="1" as="geometry"/>
                </mxCell>
                <mxCell id="210" value="&lt;b&gt;&lt;font style=&quot;font-size: 13px&quot; color=&quot;#000000&quot;&gt;NodeDef&lt;br&gt;&lt;/font&gt;&lt;/b&gt;&lt;span style=&quot;color: rgb(0 , 0 , 0) ; font-size: 13px&quot;&gt;- name: &quot;Map&quot;&lt;/span&gt;&lt;b&gt;&lt;font style=&quot;font-size: 13px&quot; color=&quot;#000000&quot;&gt;&lt;br&gt;&lt;/font&gt;&lt;/b&gt;" style="ellipse;whiteSpace=wrap;html=1;aspect=fixed;direction=west;strokeColor=#9673a6;fillColor=#CCFF99;" parent="1" vertex="1">
                    <mxGeometry x="760" width="120" height="120" as="geometry"/>
                </mxCell>
                <mxCell id="844" value="SUBCLASS_OF" style="edgeStyle=none;html=1;" parent="1" source="214" target="842" edge="1">
                    <mxGeometry relative="1" as="geometry"/>
                </mxCell>
                <mxCell id="214" value="&lt;b&gt;&lt;font style=&quot;font-size: 13px&quot; color=&quot;#000000&quot;&gt;NodeDef&lt;br&gt;&lt;/font&gt;&lt;/b&gt;&lt;span style=&quot;color: rgb(0 , 0 , 0) ; font-size: 13px&quot;&gt;- name: &quot;Reduce&quot;&lt;/span&gt;&lt;b&gt;&lt;font style=&quot;font-size: 13px&quot; color=&quot;#000000&quot;&gt;&lt;br&gt;&lt;/font&gt;&lt;/b&gt;" style="ellipse;whiteSpace=wrap;html=1;aspect=fixed;direction=west;strokeColor=#9673a6;fillColor=#CCFF99;" parent="1" vertex="1">
                    <mxGeometry x="1240" width="120" height="120" as="geometry"/>
                </mxCell>
                <mxCell id="226" value="REL_SOURCE" style="edgeStyle=none;html=1;" parent="1" source="228" target="150" edge="1">
                    <mxGeometry relative="1" as="geometry"/>
                </mxCell>
                <mxCell id="227" value="REL_TARGET" style="edgeStyle=none;html=1;" parent="1" source="228" target="846" edge="1">
                    <mxGeometry relative="1" as="geometry"/>
                </mxCell>
                <mxCell id="228" value="&lt;b&gt;&lt;font style=&quot;font-size: 13px&quot; color=&quot;#000000&quot;&gt;RelDef&lt;br&gt;&lt;/font&gt;&lt;/b&gt;&lt;span style=&quot;color: rgb(0 , 0 , 0) ; font-size: 13px&quot;&gt;- name: &quot;IMPLEMENTED&quot;&lt;/span&gt;&lt;b&gt;&lt;font style=&quot;font-size: 13px&quot; color=&quot;#000000&quot;&gt;&lt;br&gt;&lt;/font&gt;&lt;/b&gt;" style="ellipse;whiteSpace=wrap;html=1;aspect=fixed;direction=west;strokeColor=#9673a6;fillColor=#CCFF99;" parent="1" vertex="1">
                    <mxGeometry x="1920" y="-200" width="120" height="120" as="geometry"/>
                </mxCell>
                <mxCell id="229" value="HAS_TYPE" style="edgeStyle=none;html=1;" parent="1" source="233" target="230" edge="1">
                    <mxGeometry relative="1" as="geometry"/>
                </mxCell>
                <mxCell id="230" value="&lt;font style=&quot;font-size: 13px&quot; color=&quot;#000000&quot;&gt;&lt;b&gt;Type&lt;/b&gt;&lt;br&gt;- name: &quot;&lt;/font&gt;&lt;span style=&quot;color: rgb(0 , 0 , 0) ; font-size: 13px&quot;&gt;EXECUTES&lt;/span&gt;&lt;font style=&quot;font-size: 13px&quot; color=&quot;#000000&quot;&gt;&quot;&lt;br&gt;&lt;/font&gt;" style="ellipse;whiteSpace=wrap;html=1;aspect=fixed;direction=west;fillColor=#ffe6cc;strokeColor=#d79b00;" parent="1" vertex="1">
                    <mxGeometry x="1000" y="400" width="120" height="120" as="geometry"/>
                </mxCell>
                <mxCell id="231" value="REL_SOURCE" style="edgeStyle=none;html=1;" parent="1" source="233" target="210" edge="1">
                    <mxGeometry relative="1" as="geometry"/>
                </mxCell>
                <mxCell id="232" value="REL_TARGET" style="edgeStyle=none;html=1;" parent="1" source="233" target="850" edge="1">
                    <mxGeometry relative="1" as="geometry">
                        <mxPoint x="680" y="1050" as="targetPoint"/>
                    </mxGeometry>
                </mxCell>
                <mxCell id="233" value="&lt;b&gt;&lt;font style=&quot;font-size: 13px&quot; color=&quot;#000000&quot;&gt;RelDef&lt;br&gt;&lt;/font&gt;&lt;/b&gt;&lt;span style=&quot;color: rgb(0 , 0 , 0) ; font-size: 13px&quot;&gt;- name: &quot;EXECUTES&quot;&lt;/span&gt;&lt;b&gt;&lt;font style=&quot;font-size: 13px&quot; color=&quot;#000000&quot;&gt;&lt;br&gt;&lt;/font&gt;&lt;/b&gt;" style="ellipse;whiteSpace=wrap;html=1;aspect=fixed;direction=west;strokeColor=#9673a6;fillColor=#CCFF99;" parent="1" vertex="1">
                    <mxGeometry x="760" y="400" width="120" height="120" as="geometry"/>
                </mxCell>
                <mxCell id="234" value="HAS_TYPE" style="edgeStyle=none;html=1;" parent="1" source="237" target="230" edge="1">
                    <mxGeometry relative="1" as="geometry"/>
                </mxCell>
                <mxCell id="235" value="REL_SOURCE" style="edgeStyle=none;html=1;" parent="1" source="237" target="214" edge="1">
                    <mxGeometry relative="1" as="geometry"/>
                </mxCell>
                <mxCell id="236" value="REL_TARGET" style="edgeStyle=none;html=1;" parent="1" source="237" target="370" edge="1">
                    <mxGeometry relative="1" as="geometry">
                        <mxPoint x="2160" y="2640" as="targetPoint"/>
                    </mxGeometry>
                </mxCell>
                <mxCell id="237" value="&lt;b&gt;&lt;font style=&quot;font-size: 13px&quot; color=&quot;#000000&quot;&gt;RelDef&lt;br&gt;&lt;/font&gt;&lt;/b&gt;&lt;span style=&quot;color: rgb(0 , 0 , 0) ; font-size: 13px&quot;&gt;- name: &quot;&lt;/span&gt;&lt;span style=&quot;color: rgb(0 , 0 , 0) ; font-size: 13px&quot;&gt;EXECUTES&lt;/span&gt;&lt;span style=&quot;color: rgb(0 , 0 , 0) ; font-size: 13px&quot;&gt;&quot;&lt;/span&gt;&lt;b&gt;&lt;font style=&quot;font-size: 13px&quot; color=&quot;#000000&quot;&gt;&lt;br&gt;&lt;/font&gt;&lt;/b&gt;" style="ellipse;whiteSpace=wrap;html=1;aspect=fixed;direction=west;strokeColor=#9673a6;fillColor=#CCFF99;" parent="1" vertex="1">
                    <mxGeometry x="1240" y="400" width="120" height="120" as="geometry"/>
                </mxCell>
                <mxCell id="245" value="REL_SOURCE" style="edgeStyle=none;html=1;" parent="1" source="247" target="214" edge="1">
                    <mxGeometry relative="1" as="geometry"/>
                </mxCell>
                <mxCell id="391" value="REL_TARGET" style="edgeStyle=none;html=1;" parent="1" source="247" target="383" edge="1">
                    <mxGeometry relative="1" as="geometry"/>
                </mxCell>
                <mxCell id="247" value="&lt;b&gt;&lt;font style=&quot;font-size: 13px&quot; color=&quot;#000000&quot;&gt;RelDef&lt;br&gt;&lt;/font&gt;&lt;/b&gt;&lt;span style=&quot;color: rgb(0 , 0 , 0) ; font-size: 13px&quot;&gt;- name: &quot;KEY&quot;&lt;/span&gt;&lt;b&gt;&lt;font style=&quot;font-size: 13px&quot; color=&quot;#000000&quot;&gt;&lt;br&gt;&lt;/font&gt;&lt;/b&gt;" style="ellipse;whiteSpace=wrap;html=1;aspect=fixed;direction=west;strokeColor=#9673a6;fillColor=#CCFF99;" parent="1" vertex="1">
                    <mxGeometry x="1480" y="400" width="120" height="120" as="geometry"/>
                </mxCell>
                <mxCell id="252" value="HAS_TYPE" style="edgeStyle=none;html=1;" parent="1" source="254" target="25" edge="1">
                    <mxGeometry relative="1" as="geometry"/>
                </mxCell>
                <mxCell id="253" value="REL_TARGET" style="edgeStyle=none;html=1;" parent="1" source="254" target="116" edge="1">
                    <mxGeometry relative="1" as="geometry"/>
                </mxCell>
                <mxCell id="879" value="&lt;span style=&quot;font-family: &amp;#34;helvetica&amp;#34;&quot;&gt;REL_SOURCE&lt;/span&gt;" style="edgeStyle=none;html=1;" parent="1" source="254" target="850" edge="1">
                    <mxGeometry relative="1" as="geometry"/>
                </mxCell>
                <mxCell id="254" value="&lt;b&gt;&lt;font style=&quot;font-size: 13px&quot; color=&quot;#000000&quot;&gt;RelDef&lt;br&gt;&lt;/font&gt;&lt;/b&gt;&lt;span style=&quot;color: rgb(0 , 0 , 0) ; font-size: 13px&quot;&gt;- name: &quot;HAS_BINDING&quot;&lt;/span&gt;&lt;b&gt;&lt;font style=&quot;font-size: 13px&quot; color=&quot;#000000&quot;&gt;&lt;br&gt;&lt;/font&gt;&lt;/b&gt;" style="ellipse;whiteSpace=wrap;html=1;aspect=fixed;direction=west;strokeColor=#9673a6;fillColor=#CCFF99;" parent="1" vertex="1">
                    <mxGeometry x="1000" y="1800" width="120" height="120" as="geometry"/>
                </mxCell>
                <mxCell id="256" value="REL_SOURCE" style="edgeStyle=none;html=1;" parent="1" source="258" target="116" edge="1">
                    <mxGeometry relative="1" as="geometry"/>
                </mxCell>
                <mxCell id="258" value="&lt;b&gt;&lt;font style=&quot;font-size: 13px&quot; color=&quot;#000000&quot;&gt;RelDef&lt;br&gt;&lt;/font&gt;&lt;/b&gt;&lt;span style=&quot;color: rgb(0 , 0 , 0) ; font-size: 13px&quot;&gt;- name: &quot;BINDS_TO&quot;&lt;/span&gt;&lt;b&gt;&lt;font style=&quot;font-size: 13px&quot; color=&quot;#000000&quot;&gt;&lt;br&gt;&lt;/font&gt;&lt;/b&gt;" style="ellipse;whiteSpace=wrap;html=1;aspect=fixed;direction=west;strokeColor=#9673a6;fillColor=#CCFF99;" parent="1" vertex="1">
                    <mxGeometry x="1000" y="3000" width="120" height="120" as="geometry"/>
                </mxCell>
                <mxCell id="259" value="HAS_TYPE" style="edgeStyle=none;html=1;" parent="1" source="260" target="21" edge="1">
                    <mxGeometry relative="1" as="geometry"/>
                </mxCell>
                <mxCell id="260" value="&lt;b&gt;&lt;font style=&quot;font-size: 13px&quot; color=&quot;#000000&quot;&gt;RelDef&lt;br&gt;&lt;/font&gt;&lt;/b&gt;&lt;span style=&quot;color: rgb(0 , 0 , 0) ; font-size: 13px&quot;&gt;- name: &quot;&lt;/span&gt;&lt;span style=&quot;color: rgb(0 , 0 , 0) ; font-size: 13px&quot;&gt;NEXT&lt;/span&gt;&lt;span style=&quot;color: rgb(0 , 0 , 0) ; font-size: 13px&quot;&gt;&quot;&lt;/span&gt;&lt;b&gt;&lt;font style=&quot;font-size: 13px&quot; color=&quot;#000000&quot;&gt;&lt;br&gt;&lt;/font&gt;&lt;/b&gt;" style="ellipse;whiteSpace=wrap;html=1;aspect=fixed;direction=west;strokeColor=#9673a6;fillColor=#CCFF99;" parent="1" vertex="1">
                    <mxGeometry x="1000" y="210" width="120" height="120" as="geometry"/>
                </mxCell>
                <mxCell id="263" value="&lt;meta charset=&quot;utf-8&quot;&gt;&lt;span style=&quot;color: rgb(240, 240, 240); font-family: helvetica; font-size: 11px; font-style: normal; font-weight: 400; letter-spacing: normal; text-align: center; text-indent: 0px; text-transform: none; word-spacing: 0px; background-color: rgb(42, 42, 42); display: inline; float: none;&quot;&gt;REL_TARGET&lt;/span&gt;" style="edgeStyle=none;html=1;" parent="1" source="260" target="214" edge="1">
                    <mxGeometry relative="1" as="geometry">
                        <mxPoint x="846.8328157299975" y="513.665631459995" as="sourcePoint"/>
                        <mxPoint x="846.8328157299975" y="806.334368540005" as="targetPoint"/>
                        <Array as="points"/>
                    </mxGeometry>
                </mxCell>
                <mxCell id="264" value="&lt;meta charset=&quot;utf-8&quot;&gt;&lt;span style=&quot;color: rgb(240, 240, 240); font-family: helvetica; font-size: 11px; font-style: normal; font-weight: 400; letter-spacing: normal; text-align: center; text-indent: 0px; text-transform: none; word-spacing: 0px; background-color: rgb(42, 42, 42); display: inline; float: none;&quot;&gt;REL_SOURCE&lt;/span&gt;" style="edgeStyle=none;html=1;" parent="1" source="260" target="210" edge="1">
                    <mxGeometry relative="1" as="geometry">
                        <Array as="points"/>
                        <mxPoint x="793.1671842700025" y="513.665631459995" as="sourcePoint"/>
                        <mxPoint x="793.1671842700025" y="806.334368540005" as="targetPoint"/>
                    </mxGeometry>
                </mxCell>
                <mxCell id="287" value="HAS_TYPE" style="edgeStyle=none;html=1;" parent="1" source="290" target="21" edge="1">
                    <mxGeometry relative="1" as="geometry"/>
                </mxCell>
                <mxCell id="288" value="&lt;span style=&quot;font-family: &amp;#34;helvetica&amp;#34;&quot;&gt;REL_SOURCE&lt;/span&gt;" style="edgeStyle=none;html=1;" parent="1" source="290" target="214" edge="1">
                    <mxGeometry relative="1" as="geometry"/>
                </mxCell>
                <mxCell id="289" value="&lt;span style=&quot;font-family: &amp;#34;helvetica&amp;#34;&quot;&gt;REL_TARGET&lt;/span&gt;" style="edgeStyle=none;html=1;" parent="1" source="290" target="210" edge="1">
                    <mxGeometry relative="1" as="geometry">
                        <mxPoint x="820" y="-100" as="targetPoint"/>
                    </mxGeometry>
                </mxCell>
                <mxCell id="290" value="&lt;b&gt;&lt;font style=&quot;font-size: 13px&quot; color=&quot;#000000&quot;&gt;RelDef&lt;br&gt;&lt;/font&gt;&lt;/b&gt;&lt;span style=&quot;color: rgb(0 , 0 , 0) ; font-size: 13px&quot;&gt;- name: &quot;&lt;/span&gt;&lt;span style=&quot;color: rgb(0 , 0 , 0) ; font-size: 13px&quot;&gt;NEXT&lt;/span&gt;&lt;span style=&quot;color: rgb(0 , 0 , 0) ; font-size: 13px&quot;&gt;&quot;&lt;/span&gt;&lt;b&gt;&lt;font style=&quot;font-size: 13px&quot; color=&quot;#000000&quot;&gt;&lt;br&gt;&lt;/font&gt;&lt;/b&gt;" style="ellipse;whiteSpace=wrap;html=1;aspect=fixed;direction=west;strokeColor=#9673a6;fillColor=#CCFF99;" parent="1" vertex="1">
                    <mxGeometry x="1000" y="-220" width="120" height="120" as="geometry"/>
                </mxCell>
                <mxCell id="296" value="DEFINES" style="edgeStyle=none;html=1;dashed=1;" parent="1" source="109" target="304" edge="1">
                    <mxGeometry relative="1" as="geometry">
                        <mxPoint x="1573.8749680643105" y="-1391.6270742719894" as="sourcePoint"/>
                    </mxGeometry>
                </mxCell>
                <mxCell id="298" value="&lt;meta charset=&quot;utf-8&quot;&gt;&lt;span style=&quot;color: rgb(240, 240, 240); font-family: helvetica; font-size: 11px; font-style: normal; font-weight: 400; letter-spacing: normal; text-align: center; text-indent: 0px; text-transform: none; word-spacing: 0px; background-color: rgb(42, 42, 42); display: inline; float: none;&quot;&gt;REL_SOURCE&lt;/span&gt;" style="edgeStyle=none;html=1;" parent="1" source="300" target="308" edge="1">
                    <mxGeometry relative="1" as="geometry"/>
                </mxCell>
                <mxCell id="337" value="&lt;span style=&quot;font-family: &amp;#34;helvetica&amp;#34;&quot;&gt;REL_TARGET&lt;/span&gt;" style="edgeStyle=none;html=1;" parent="1" source="300" target="842" edge="1">
                    <mxGeometry relative="1" as="geometry">
                        <mxPoint x="930" y="-70" as="targetPoint"/>
                    </mxGeometry>
                </mxCell>
                <mxCell id="300" value="&lt;b&gt;&lt;font style=&quot;font-size: 13px&quot; color=&quot;#000000&quot;&gt;RelDef&lt;br&gt;&lt;/font&gt;&lt;/b&gt;&lt;span style=&quot;color: rgb(0 , 0 , 0) ; font-size: 13px&quot;&gt;- name: &quot;EXECUTES&quot;&lt;/span&gt;&lt;b&gt;&lt;font style=&quot;font-size: 13px&quot; color=&quot;#000000&quot;&gt;&lt;br&gt;&lt;/font&gt;&lt;/b&gt;" style="ellipse;whiteSpace=wrap;html=1;aspect=fixed;direction=west;strokeColor=#9673a6;fillColor=#CCFF99;" parent="1" vertex="1">
                    <mxGeometry x="1000" y="-600" width="120" height="120" as="geometry"/>
                </mxCell>
                <mxCell id="304" value="&lt;b&gt;&lt;font style=&quot;font-size: 13px&quot; color=&quot;#000000&quot;&gt;NodeDef&lt;br&gt;&lt;/font&gt;&lt;/b&gt;&lt;span style=&quot;color: rgb(0 , 0 , 0) ; font-size: 13px&quot;&gt;- name: &quot;Job&quot;&lt;br&gt;&lt;/span&gt;&lt;font color=&quot;#000000&quot;&gt;&lt;span style=&quot;font-size: 13px&quot;&gt;- uuid: &quot;97cec68b-e465-45bc-ad60-5a284c062bf3&quot;&lt;/span&gt;&lt;br&gt;&lt;/font&gt;" style="ellipse;whiteSpace=wrap;html=1;aspect=fixed;direction=west;strokeColor=#9673a6;fillColor=#CCFF99;" parent="1" vertex="1">
                    <mxGeometry x="1000" y="-1200" width="120" height="120" as="geometry"/>
                </mxCell>
                <mxCell id="308" value="&lt;b&gt;&lt;font style=&quot;font-size: 13px&quot; color=&quot;#000000&quot;&gt;NodeDef&lt;br&gt;&lt;/font&gt;&lt;/b&gt;&lt;span style=&quot;color: rgb(0 , 0 , 0) ; font-size: 13px&quot;&gt;- name: &quot;Task&quot;&lt;br&gt;&lt;/span&gt;&lt;font color=&quot;#000000&quot;&gt;&lt;span style=&quot;font-size: 13px&quot;&gt;- uuid: &quot;5ee1620e-ae0c-4b53-b522-8776dd2b88d0&quot;&lt;/span&gt;&lt;br&gt;&lt;/font&gt;" style="ellipse;whiteSpace=wrap;html=1;aspect=fixed;direction=west;strokeColor=#9673a6;fillColor=#CCFF99;" parent="1" vertex="1">
                    <mxGeometry x="1000" y="-800" width="120" height="120" as="geometry"/>
                </mxCell>
                <mxCell id="309" value="&lt;meta charset=&quot;utf-8&quot;&gt;&lt;span style=&quot;color: rgb(240, 240, 240); font-family: helvetica; font-size: 11px; font-style: normal; font-weight: 400; letter-spacing: normal; text-align: center; text-indent: 0px; text-transform: none; word-spacing: 0px; background-color: rgb(42, 42, 42); display: inline; float: none;&quot;&gt;REL_SOURCE&lt;/span&gt;" style="edgeStyle=none;html=1;" parent="1" source="313" target="304" edge="1">
                    <mxGeometry relative="1" as="geometry"/>
                </mxCell>
                <mxCell id="312" value="&lt;meta charset=&quot;utf-8&quot;&gt;&lt;span style=&quot;color: rgb(240, 240, 240); font-family: helvetica; font-size: 11px; font-style: normal; font-weight: 400; letter-spacing: normal; text-align: center; text-indent: 0px; text-transform: none; word-spacing: 0px; background-color: rgb(42, 42, 42); display: inline; float: none;&quot;&gt;REL_TARGET&lt;/span&gt;" style="edgeStyle=none;html=1;" parent="1" source="313" target="308" edge="1">
                    <mxGeometry relative="1" as="geometry"/>
                </mxCell>
                <mxCell id="313" value="&lt;b&gt;&lt;font style=&quot;font-size: 13px&quot; color=&quot;#000000&quot;&gt;RelDef&lt;br&gt;&lt;/font&gt;&lt;/b&gt;&lt;span style=&quot;color: rgb(0 , 0 , 0) ; font-size: 13px&quot;&gt;- name: &quot;STARTS_WITH&quot;&lt;/span&gt;&lt;b&gt;&lt;font style=&quot;font-size: 13px&quot; color=&quot;#000000&quot;&gt;&lt;br&gt;&lt;/font&gt;&lt;/b&gt;" style="ellipse;whiteSpace=wrap;html=1;aspect=fixed;direction=west;strokeColor=#9673a6;fillColor=#CCFF99;" parent="1" vertex="1">
                    <mxGeometry x="1000" y="-1000" width="120" height="120" as="geometry"/>
                </mxCell>
                <mxCell id="315" value="DEFINES" style="edgeStyle=none;html=1;dashed=1;" parent="1" source="109" target="300" edge="1">
                    <mxGeometry relative="1" as="geometry">
                        <mxPoint x="1594.0868960829748" y="-1375.884280976496" as="sourcePoint"/>
                    </mxGeometry>
                </mxCell>
                <mxCell id="316" value="DEFINES" style="edgeStyle=none;html=1;dashed=1;" parent="1" source="109" target="308" edge="1">
                    <mxGeometry relative="1" as="geometry">
                        <mxPoint x="1589.0934603097749" y="-1378.5725189769937" as="sourcePoint"/>
                    </mxGeometry>
                </mxCell>
                <mxCell id="318" value="DEFINES" style="edgeStyle=none;html=1;dashed=1;" parent="1" source="109" target="313" edge="1">
                    <mxGeometry relative="1" as="geometry">
                        <mxPoint x="1582.537101177757" y="-1383.1328343952187" as="sourcePoint"/>
                    </mxGeometry>
                </mxCell>
                <mxCell id="323" value="DEFINES" style="edgeStyle=none;html=1;dashed=1;" parent="1" source="109" target="334" edge="1">
                    <mxGeometry relative="1" as="geometry">
                        <mxPoint x="1579.8918290409765" y="-1385.375627485269" as="sourcePoint"/>
                    </mxGeometry>
                </mxCell>
                <mxCell id="333" value="&lt;span style=&quot;font-family: &amp;#34;helvetica&amp;#34;&quot;&gt;REL_SOURCE&lt;/span&gt;" style="edgeStyle=none;html=1;" parent="1" source="334" target="304" edge="1">
                    <mxGeometry relative="1" as="geometry"/>
                </mxCell>
                <mxCell id="339" value="&lt;span style=&quot;font-family: &amp;#34;helvetica&amp;#34;&quot;&gt;REL_TARGET&lt;/span&gt;" style="edgeStyle=none;html=1;" parent="1" source="334" target="171" edge="1">
                    <mxGeometry relative="1" as="geometry">
                        <mxPoint x="600" y="1640" as="targetPoint"/>
                    </mxGeometry>
                </mxCell>
                <mxCell id="334" value="&lt;b&gt;&lt;font style=&quot;font-size: 13px&quot; color=&quot;#000000&quot;&gt;RelDef&lt;br&gt;&lt;/font&gt;&lt;/b&gt;&lt;span style=&quot;color: rgb(0 , 0 , 0) ; font-size: 13px&quot;&gt;- name: &quot;&lt;/span&gt;&lt;span style=&quot;color: rgb(0 , 0 , 0) ; font-size: 13px&quot;&gt;HAS_INPUT&lt;/span&gt;&lt;span style=&quot;color: rgb(0 , 0 , 0) ; font-size: 13px&quot;&gt;&quot;&lt;/span&gt;&lt;b&gt;&lt;font style=&quot;font-size: 13px&quot; color=&quot;#000000&quot;&gt;&lt;br&gt;&lt;/font&gt;&lt;/b&gt;" style="ellipse;whiteSpace=wrap;html=1;aspect=fixed;direction=west;strokeColor=#9673a6;fillColor=#CCFF99;" parent="1" vertex="1">
                    <mxGeometry x="760" y="-1200" width="120" height="120" as="geometry"/>
                </mxCell>
                <mxCell id="352" value="DEFINES" style="edgeStyle=none;html=1;dashed=1;" parent="1" source="839" target="353" edge="1">
                    <mxGeometry relative="1" as="geometry">
                        <mxPoint x="4350" y="5140" as="sourcePoint"/>
                    </mxGeometry>
                </mxCell>
                <mxCell id="353" value="&lt;b&gt;&lt;font color=&quot;#000000&quot; style=&quot;font-size: 13px&quot;&gt;@@NodeDef&lt;br&gt;&lt;/font&gt;&lt;/b&gt;&lt;span style=&quot;color: rgb(0 , 0 , 0) ; font-size: 13px&quot;&gt;- name: &quot;Property&quot;&lt;br&gt;&lt;/span&gt;&lt;font color=&quot;#000000&quot;&gt;&lt;span style=&quot;font-size: 13px&quot;&gt;- uuid: &quot;c44baf47-7a11-42a5-98eb-0df8989339c6&quot;&lt;/span&gt;&lt;/font&gt;&lt;b&gt;&lt;font style=&quot;font-size: 13px&quot; color=&quot;#000000&quot;&gt;&lt;br&gt;&lt;/font&gt;&lt;/b&gt;" style="ellipse;whiteSpace=wrap;html=1;aspect=fixed;direction=west;strokeColor=#9673a6;fillColor=#CCFF99;" parent="1" vertex="1">
                    <mxGeometry x="3280" y="5200" width="120" height="120" as="geometry"/>
                </mxCell>
                <mxCell id="865" value="SUBCLASS_OF" style="edgeStyle=none;html=1;" parent="1" source="361" target="855" edge="1">
                    <mxGeometry relative="1" as="geometry"/>
                </mxCell>
                <mxCell id="874" value="SUBCLASS_OF" style="edgeStyle=none;html=1;" parent="1" source="361" target="870" edge="1">
                    <mxGeometry x="0.1115" y="-2" relative="1" as="geometry">
                        <mxPoint as="offset"/>
                    </mxGeometry>
                </mxCell>
                <mxCell id="361" value="&lt;b&gt;&lt;font style=&quot;font-size: 13px&quot; color=&quot;#000000&quot;&gt;NodeDef&lt;br&gt;&lt;/font&gt;&lt;/b&gt;&lt;span style=&quot;color: rgb(0 , 0 , 0) ; font-size: 13px&quot;&gt;- name: &quot;Call&quot;&lt;/span&gt;&lt;b&gt;&lt;font style=&quot;font-size: 13px&quot; color=&quot;#000000&quot;&gt;&lt;br&gt;&lt;/font&gt;&lt;/b&gt;" style="ellipse;whiteSpace=wrap;html=1;aspect=fixed;direction=west;strokeColor=#9673a6;fillColor=#CCFF99;" parent="1" vertex="1">
                    <mxGeometry x="1480" y="1200" width="120" height="120" as="geometry"/>
                </mxCell>
                <mxCell id="364" value="HAS_TYPE" style="edgeStyle=none;html=1;" parent="1" source="363" target="840" edge="1">
                    <mxGeometry relative="1" as="geometry">
                        <mxPoint x="2650" y="5990" as="targetPoint"/>
                    </mxGeometry>
                </mxCell>
                <mxCell id="892" value="HAS_TYPE" style="edgeStyle=none;html=1;" parent="1" source="363" target="888" edge="1">
                    <mxGeometry relative="1" as="geometry"/>
                </mxCell>
                <mxCell id="895" value="SUBCLASS_OF" style="edgeStyle=none;html=1;" parent="1" source="363" target="883" edge="1">
                    <mxGeometry relative="1" as="geometry"/>
                </mxCell>
                <mxCell id="896" value="SUBCLASS_OF" style="edgeStyle=none;html=1;" parent="1" source="363" target="882" edge="1">
                    <mxGeometry relative="1" as="geometry">
                        <mxPoint x="980" y="3310" as="targetPoint"/>
                    </mxGeometry>
                </mxCell>
                <mxCell id="363" value="&lt;b&gt;&lt;font style=&quot;font-size: 13px&quot; color=&quot;#000000&quot;&gt;NodeDef&lt;br&gt;&lt;/font&gt;&lt;/b&gt;&lt;span style=&quot;color: rgb(0 , 0 , 0) ; font-size: 13px&quot;&gt;- name: &quot;Output&quot;&lt;/span&gt;&lt;b&gt;&lt;font style=&quot;font-size: 13px&quot; color=&quot;#000000&quot;&gt;&lt;br&gt;&lt;/font&gt;&lt;/b&gt;" style="ellipse;whiteSpace=wrap;html=1;aspect=fixed;direction=west;strokeColor=#9673a6;fillColor=#CCFF99;" parent="1" vertex="1">
                    <mxGeometry x="3280" y="3600" width="120" height="120" as="geometry"/>
                </mxCell>
                <mxCell id="875" value="SUBCLASS_OF" style="edgeStyle=none;html=1;" parent="1" source="370" target="870" edge="1">
                    <mxGeometry relative="1" as="geometry"/>
                </mxCell>
                <mxCell id="370" value="&lt;b&gt;&lt;font style=&quot;font-size: 13px&quot; color=&quot;#000000&quot;&gt;NodeDef&lt;br&gt;&lt;/font&gt;&lt;/b&gt;&lt;font&gt;&lt;span style=&quot;font-size: 13px ; color: rgb(0 , 0 , 0)&quot;&gt;- name: &quot;&lt;/span&gt;&lt;font color=&quot;#000000&quot;&gt;&lt;span style=&quot;font-size: 13px&quot;&gt;Aggregation&quot;&lt;/span&gt;&lt;/font&gt;&lt;/font&gt;&lt;b&gt;&lt;font style=&quot;font-size: 13px&quot; color=&quot;#000000&quot;&gt;&lt;br&gt;&lt;/font&gt;&lt;/b&gt;" style="ellipse;whiteSpace=wrap;html=1;aspect=fixed;direction=west;strokeColor=#9673a6;fillColor=#CCFF99;" parent="1" vertex="1">
                    <mxGeometry x="1720" y="800" width="120" height="120" as="geometry"/>
                </mxCell>
                <mxCell id="379" value="REL_SOURCE" style="edgeStyle=none;html=1;" parent="1" source="375" target="370" edge="1">
                    <mxGeometry relative="1" as="geometry"/>
                </mxCell>
                <mxCell id="381" value="&lt;span style=&quot;font-family: &amp;#34;helvetica&amp;#34;&quot;&gt;REL_TARGET&lt;/span&gt;" style="edgeStyle=none;html=1;" parent="1" source="375" target="153" edge="1">
                    <mxGeometry relative="1" as="geometry"/>
                </mxCell>
                <mxCell id="887" value="HAS_TYPE" style="edgeStyle=none;html=1;" parent="1" source="375" target="666" edge="1">
                    <mxGeometry relative="1" as="geometry"/>
                </mxCell>
                <mxCell id="375" value="&lt;b&gt;&lt;font style=&quot;font-size: 13px&quot; color=&quot;#000000&quot;&gt;RelDef&lt;br&gt;&lt;/font&gt;&lt;/b&gt;&lt;span style=&quot;color: rgb(0 , 0 , 0) ; font-size: 13px&quot;&gt;- name: &quot;USING&quot;&lt;/span&gt;&lt;b&gt;&lt;font style=&quot;font-size: 13px&quot; color=&quot;#000000&quot;&gt;&lt;br&gt;&lt;/font&gt;&lt;/b&gt;" style="ellipse;whiteSpace=wrap;html=1;aspect=fixed;direction=west;strokeColor=#9673a6;fillColor=#CCFF99;" parent="1" vertex="1">
                    <mxGeometry x="1480" y="2400" width="120" height="120" as="geometry"/>
                </mxCell>
                <mxCell id="897" value="SUBCLASS_OF" style="edgeStyle=none;html=1;" parent="1" source="383" target="883" edge="1">
                    <mxGeometry x="0.6429" relative="1" as="geometry">
                        <mxPoint as="offset"/>
                    </mxGeometry>
                </mxCell>
                <mxCell id="383" value="&lt;b&gt;&lt;font style=&quot;font-size: 13px&quot; color=&quot;#000000&quot;&gt;NodeDef&lt;br&gt;&lt;/font&gt;&lt;/b&gt;&lt;span style=&quot;color: rgb(0 , 0 , 0) ; font-size: 13px&quot;&gt;- name: &quot;&lt;/span&gt;&lt;span style=&quot;color: rgb(0 , 0 , 0)&quot;&gt;Var&lt;/span&gt;&lt;span style=&quot;color: rgb(0 , 0 , 0) ; font-size: 13px&quot;&gt;&quot;&lt;/span&gt;&lt;b&gt;&lt;font style=&quot;font-size: 13px&quot; color=&quot;#000000&quot;&gt;&lt;br&gt;&lt;/font&gt;&lt;/b&gt;" style="ellipse;whiteSpace=wrap;html=1;aspect=fixed;direction=west;strokeColor=#9673a6;fillColor=#CCFF99;" parent="1" vertex="1">
                    <mxGeometry x="1240" y="2800" width="120" height="120" as="geometry"/>
                </mxCell>
                <mxCell id="386" value="HAS_TYPE" style="edgeStyle=none;html=1;" parent="1" edge="1">
                    <mxGeometry relative="1" as="geometry">
                        <mxPoint x="2320" y="4260" as="targetPoint"/>
                    </mxGeometry>
                </mxCell>
                <mxCell id="411" value="REL_SOURCE" style="edgeStyle=none;html=1;" parent="1" source="400" target="383" edge="1">
                    <mxGeometry relative="1" as="geometry"/>
                </mxCell>
                <mxCell id="433" value="&lt;span style=&quot;font-family: &amp;#34;helvetica&amp;#34;&quot;&gt;REL_TARGET&lt;/span&gt;" style="edgeStyle=none;html=1;" parent="1" source="400" target="882" edge="1">
                    <mxGeometry relative="1" as="geometry">
                        <mxPoint x="700" y="3600" as="targetPoint"/>
                    </mxGeometry>
                </mxCell>
                <mxCell id="400" value="&lt;b&gt;&lt;font style=&quot;font-size: 13px&quot; color=&quot;#000000&quot;&gt;RelDef&lt;br&gt;&lt;/font&gt;&lt;/b&gt;&lt;span style=&quot;color: rgb(0 , 0 , 0) ; font-size: 13px&quot;&gt;- name: &quot;VALUE_OF&quot;&lt;/span&gt;&lt;b&gt;&lt;font style=&quot;font-size: 13px&quot; color=&quot;#000000&quot;&gt;&lt;br&gt;&lt;/font&gt;&lt;/b&gt;" style="ellipse;whiteSpace=wrap;html=1;aspect=fixed;direction=west;strokeColor=#9673a6;fillColor=#CCFF99;" parent="1" vertex="1">
                    <mxGeometry x="1240" y="3000" width="120" height="120" as="geometry"/>
                </mxCell>
                <mxCell id="407" value="HAS_TYPE" style="edgeStyle=none;html=1;" parent="1" edge="1">
                    <mxGeometry relative="1" as="geometry">
                        <mxPoint x="2426.0932767758923" y="4298.41106397991" as="targetPoint"/>
                    </mxGeometry>
                </mxCell>
                <mxCell id="406" value="HAS_TYPE" style="edgeStyle=none;html=1;" parent="1" edge="1">
                    <mxGeometry relative="1" as="geometry">
                        <mxPoint x="2426.0932767758923" y="4221.58893602009" as="targetPoint"/>
                    </mxGeometry>
                </mxCell>
                <mxCell id="409" value="HAS_TYPE" style="edgeStyle=none;html=1;" parent="1" edge="1">
                    <mxGeometry relative="1" as="geometry">
                        <mxPoint x="2333.906723224108" y="4298.41106397991" as="targetPoint"/>
                    </mxGeometry>
                </mxCell>
                <mxCell id="408" value="HAS_TYPE" style="edgeStyle=none;html=1;" parent="1" edge="1">
                    <mxGeometry relative="1" as="geometry">
                        <mxPoint x="2440" y="4260" as="targetPoint"/>
                    </mxGeometry>
                </mxCell>
                <mxCell id="426" value="REL_TARGET" style="edgeStyle=none;html=1;" parent="1" source="420" target="116" edge="1">
                    <mxGeometry relative="1" as="geometry"/>
                </mxCell>
                <mxCell id="878" value="&lt;span style=&quot;font-family: &amp;#34;helvetica&amp;#34;&quot;&gt;REL_SOURCE&lt;/span&gt;" style="edgeStyle=none;html=1;" parent="1" source="420" target="842" edge="1">
                    <mxGeometry relative="1" as="geometry"/>
                </mxCell>
                <mxCell id="420" value="&lt;b&gt;&lt;font style=&quot;font-size: 13px&quot; color=&quot;#000000&quot;&gt;RelDef&lt;br&gt;&lt;/font&gt;&lt;/b&gt;&lt;span style=&quot;color: rgb(0 , 0 , 0) ; font-size: 13px&quot;&gt;- name: &quot;HAS_OUTPUT_BINDING&quot;&lt;/span&gt;&lt;b&gt;&lt;font style=&quot;font-size: 13px&quot; color=&quot;#000000&quot;&gt;&lt;br&gt;&lt;/font&gt;&lt;/b&gt;" style="ellipse;whiteSpace=wrap;html=1;aspect=fixed;direction=west;strokeColor=#9673a6;fillColor=#CCFF99;" parent="1" vertex="1">
                    <mxGeometry x="520" width="120" height="120" as="geometry"/>
                </mxCell>
                <mxCell id="439" value="HAS_TYPE" style="edgeStyle=none;html=1;" parent="1" edge="1">
                    <mxGeometry relative="1" as="geometry">
                        <mxPoint x="842.2329936222877" y="5204.271246249396" as="sourcePoint"/>
                    </mxGeometry>
                </mxCell>
                <mxCell id="440" value="HAS_TYPE" style="edgeStyle=none;html=1;" parent="1" edge="1">
                    <mxGeometry relative="1" as="geometry">
                        <mxPoint x="837.1697216880129" y="5402.509125444652" as="sourcePoint"/>
                    </mxGeometry>
                </mxCell>
                <mxCell id="594" value="&lt;meta charset=&quot;utf-8&quot;&gt;&lt;span style=&quot;color: rgb(240, 240, 240); font-family: helvetica; font-size: 11px; font-style: normal; font-weight: 400; letter-spacing: normal; text-align: center; text-indent: 0px; text-transform: none; word-spacing: 0px; background-color: rgb(42, 42, 42); display: inline; float: none;&quot;&gt;HAS_TYPE&lt;/span&gt;" style="edgeStyle=none;html=1;" parent="1" source="596" target="597" edge="1">
                    <mxGeometry relative="1" as="geometry"/>
                </mxCell>
                <mxCell id="859" value="SUBCLASS_OF" style="edgeStyle=none;html=1;" parent="1" source="596" target="854" edge="1">
                    <mxGeometry relative="1" as="geometry"/>
                </mxCell>
                <mxCell id="871" value="SUBCLASS_OF" style="edgeStyle=none;html=1;" parent="1" source="596" target="870" edge="1">
                    <mxGeometry x="0.1185" relative="1" as="geometry">
                        <mxPoint as="offset"/>
                    </mxGeometry>
                </mxCell>
                <mxCell id="596" value="&lt;b&gt;&lt;font style=&quot;font-size: 13px&quot; color=&quot;#000000&quot;&gt;NodeDef&lt;br&gt;&lt;/font&gt;&lt;/b&gt;&lt;span style=&quot;color: rgb(0 , 0 , 0) ; font-size: 13px&quot;&gt;- name: &quot;&lt;/span&gt;&lt;span style=&quot;color: rgb(0 , 0 , 0) ; font-size: 13px&quot;&gt;Match&lt;/span&gt;&lt;span style=&quot;color: rgb(0 , 0 , 0) ; font-size: 13px&quot;&gt;&quot;&lt;/span&gt;&lt;b&gt;&lt;font style=&quot;font-size: 13px&quot; color=&quot;#000000&quot;&gt;&lt;br&gt;&lt;/font&gt;&lt;/b&gt;" style="ellipse;whiteSpace=wrap;html=1;aspect=fixed;direction=west;strokeColor=#9673a6;fillColor=#CCFF99;" parent="1" vertex="1">
                    <mxGeometry x="40" y="1200" width="120" height="120" as="geometry"/>
                </mxCell>
                <mxCell id="597" value="&lt;font style=&quot;font-size: 13px&quot; color=&quot;#000000&quot;&gt;&lt;b&gt;Type&lt;/b&gt;&lt;br&gt;- name: &quot;&lt;/font&gt;&lt;span style=&quot;color: rgb(0 , 0 , 0) ; font-size: 13px&quot;&gt;Match&lt;/span&gt;&lt;font style=&quot;font-size: 13px&quot; color=&quot;#000000&quot;&gt;&quot;&lt;br&gt;&lt;/font&gt;" style="ellipse;whiteSpace=wrap;html=1;aspect=fixed;direction=west;fillColor=#ffe6cc;strokeColor=#d79b00;" parent="1" vertex="1">
                    <mxGeometry x="40" y="1400" width="120" height="120" as="geometry"/>
                </mxCell>
                <mxCell id="605" value="HAS_TYPE" style="edgeStyle=none;html=1;" parent="1" source="858" target="608" edge="1">
                    <mxGeometry relative="1" as="geometry">
                        <mxPoint x="450" y="1930" as="sourcePoint"/>
                    </mxGeometry>
                </mxCell>
                <mxCell id="860" value="SUBCLASS_OF" style="edgeStyle=none;html=1;" parent="1" source="607" target="854" edge="1">
                    <mxGeometry relative="1" as="geometry"/>
                </mxCell>
                <mxCell id="872" value="SUBCLASS_OF" style="edgeStyle=none;html=1;" parent="1" source="607" target="870" edge="1">
                    <mxGeometry x="0.2628" y="-2" relative="1" as="geometry">
                        <mxPoint as="offset"/>
                    </mxGeometry>
                </mxCell>
                <mxCell id="607" value="&lt;b&gt;&lt;font style=&quot;font-size: 13px&quot; color=&quot;#000000&quot;&gt;NodeDef&lt;br&gt;&lt;/font&gt;&lt;/b&gt;&lt;span style=&quot;color: rgb(0 , 0 , 0) ; font-size: 13px&quot;&gt;- name: &quot;&lt;/span&gt;&lt;span style=&quot;color: rgb(0 , 0 , 0) ; font-size: 13px&quot;&gt;Create&lt;/span&gt;&lt;span style=&quot;color: rgb(0 , 0 , 0) ; font-size: 13px&quot;&gt;&quot;&lt;/span&gt;&lt;b&gt;&lt;font style=&quot;font-size: 13px&quot; color=&quot;#000000&quot;&gt;&lt;br&gt;&lt;/font&gt;&lt;/b&gt;" style="ellipse;whiteSpace=wrap;html=1;aspect=fixed;direction=west;strokeColor=#9673a6;fillColor=#CCFF99;" parent="1" vertex="1">
                    <mxGeometry x="280" y="1200" width="120" height="120" as="geometry"/>
                </mxCell>
                <mxCell id="608" value="&lt;font style=&quot;font-size: 13px&quot; color=&quot;#000000&quot;&gt;&lt;b&gt;Type&lt;/b&gt;&lt;br&gt;- name: &quot;&lt;/font&gt;&lt;span style=&quot;color: rgb(0 , 0 , 0) ; font-size: 13px&quot;&gt;GraphFilter&lt;/span&gt;&lt;font style=&quot;font-size: 13px&quot; color=&quot;#000000&quot;&gt;&quot;&lt;br&gt;&lt;/font&gt;" style="ellipse;whiteSpace=wrap;html=1;aspect=fixed;direction=west;fillColor=#ffe6cc;strokeColor=#d79b00;" parent="1" vertex="1">
                    <mxGeometry x="760" y="1400" width="120" height="120" as="geometry"/>
                </mxCell>
                <mxCell id="861" value="SUBCLASS_OF" style="edgeStyle=none;html=1;" parent="1" source="611" target="854" edge="1">
                    <mxGeometry relative="1" as="geometry"/>
                </mxCell>
                <mxCell id="873" value="SUBCLASS_OF" style="edgeStyle=none;html=1;" parent="1" source="611" target="870" edge="1">
                    <mxGeometry relative="1" as="geometry"/>
                </mxCell>
                <mxCell id="611" value="&lt;b&gt;&lt;font style=&quot;font-size: 13px&quot; color=&quot;#000000&quot;&gt;NodeDef&lt;br&gt;&lt;/font&gt;&lt;/b&gt;&lt;span style=&quot;color: rgb(0 , 0 , 0) ; font-size: 13px&quot;&gt;- name: &quot;&lt;/span&gt;&lt;span style=&quot;color: rgb(0 , 0 , 0) ; font-size: 13px&quot;&gt;Complete&lt;/span&gt;&lt;span style=&quot;color: rgb(0 , 0 , 0) ; font-size: 13px&quot;&gt;&quot;&lt;/span&gt;&lt;b&gt;&lt;font style=&quot;font-size: 13px&quot; color=&quot;#000000&quot;&gt;&lt;br&gt;&lt;/font&gt;&lt;/b&gt;" style="ellipse;whiteSpace=wrap;html=1;aspect=fixed;direction=west;strokeColor=#9673a6;fillColor=#CCFF99;" parent="1" vertex="1">
                    <mxGeometry x="520" y="1200" width="120" height="120" as="geometry"/>
                </mxCell>
                <mxCell id="671" value="HAS_TYPE" style="edgeStyle=none;html=1;" parent="1" source="665" target="666" edge="1">
                    <mxGeometry relative="1" as="geometry"/>
                </mxCell>
                <mxCell id="676" value="&lt;span style=&quot;font-family: &amp;#34;helvetica&amp;#34;&quot;&gt;REL_TARGET&lt;/span&gt;" style="edgeStyle=none;html=1;" parent="1" source="665" target="786" edge="1">
                    <mxGeometry relative="1" as="geometry">
                        <mxPoint x="2900" y="5360" as="targetPoint"/>
                    </mxGeometry>
                </mxCell>
                <mxCell id="876" value="&lt;span style=&quot;font-family: &amp;#34;helvetica&amp;#34;&quot;&gt;REL_SOURCE&lt;/span&gt;" style="edgeStyle=none;html=1;" parent="1" source="665" target="854" edge="1">
                    <mxGeometry relative="1" as="geometry"/>
                </mxCell>
                <mxCell id="665" value="&lt;b&gt;&lt;font style=&quot;font-size: 13px&quot; color=&quot;#000000&quot;&gt;RelDef&lt;br&gt;&lt;/font&gt;&lt;/b&gt;&lt;span style=&quot;color: rgb(0 , 0 , 0) ; font-size: 13px&quot;&gt;- name: &quot;USING&quot;&lt;/span&gt;&lt;b&gt;&lt;font style=&quot;font-size: 13px&quot; color=&quot;#000000&quot;&gt;&lt;br&gt;&lt;/font&gt;&lt;/b&gt;" style="ellipse;whiteSpace=wrap;html=1;aspect=fixed;direction=west;strokeColor=#9673a6;fillColor=#CCFF99;" parent="1" vertex="1">
                    <mxGeometry x="1000" y="2400" width="120" height="120" as="geometry"/>
                </mxCell>
                <mxCell id="666" value="&lt;font style=&quot;font-size: 13px&quot; color=&quot;#000000&quot;&gt;&lt;b&gt;Type&lt;/b&gt;&lt;br&gt;- name: &quot;&lt;/font&gt;&lt;span style=&quot;color: rgb(0 , 0 , 0) ; font-size: 13px&quot;&gt;USING&lt;/span&gt;&lt;font style=&quot;font-size: 13px&quot; color=&quot;#000000&quot;&gt;&quot;&lt;br&gt;&lt;/font&gt;" style="ellipse;whiteSpace=wrap;html=1;aspect=fixed;direction=west;fillColor=#ffe6cc;strokeColor=#d79b00;" parent="1" vertex="1">
                    <mxGeometry x="1240" y="2200" width="120" height="120" as="geometry"/>
                </mxCell>
                <mxCell id="669" value="HAS_TYPE" style="edgeStyle=none;html=1;" parent="1" source="667" target="666" edge="1">
                    <mxGeometry relative="1" as="geometry"/>
                </mxCell>
                <mxCell id="675" value="&lt;span style=&quot;font-family: &amp;#34;helvetica&amp;#34;&quot;&gt;REL_TARGET&lt;/span&gt;" style="edgeStyle=none;html=1;" parent="1" source="667" target="150" edge="1">
                    <mxGeometry relative="1" as="geometry">
                        <mxPoint x="2450" y="5800" as="targetPoint"/>
                    </mxGeometry>
                </mxCell>
                <mxCell id="877" value="&lt;span style=&quot;font-family: &amp;#34;helvetica&amp;#34;&quot;&gt;REL_SOURCE&lt;/span&gt;" style="edgeStyle=none;html=1;" parent="1" source="667" target="855" edge="1">
                    <mxGeometry x="-0.1601" y="3" relative="1" as="geometry">
                        <mxPoint as="offset"/>
                    </mxGeometry>
                </mxCell>
                <mxCell id="667" value="&lt;b&gt;&lt;font style=&quot;font-size: 13px&quot; color=&quot;#000000&quot;&gt;RelDef&lt;br&gt;&lt;/font&gt;&lt;/b&gt;&lt;span style=&quot;color: rgb(0 , 0 , 0) ; font-size: 13px&quot;&gt;- name: &quot;&lt;/span&gt;&lt;span style=&quot;color: rgb(0 , 0 , 0) ; font-size: 13px&quot;&gt;USING&lt;/span&gt;&lt;span style=&quot;color: rgb(0 , 0 , 0) ; font-size: 13px&quot;&gt;&quot;&lt;/span&gt;&lt;b&gt;&lt;font style=&quot;font-size: 13px&quot; color=&quot;#000000&quot;&gt;&lt;br&gt;&lt;/font&gt;&lt;/b&gt;" style="ellipse;whiteSpace=wrap;html=1;aspect=fixed;direction=west;strokeColor=#9673a6;fillColor=#CCFF99;" parent="1" vertex="1">
                    <mxGeometry x="1240" y="2400" width="120" height="120" as="geometry"/>
                </mxCell>
                <mxCell id="717" value="REL_SOURCE" style="edgeStyle=none;html=1;" parent="1" source="713" target="116" edge="1">
                    <mxGeometry relative="1" as="geometry"/>
                </mxCell>
                <mxCell id="720" value="REL_TARGET" style="edgeStyle=none;html=1;" parent="1" source="713" target="882" edge="1">
                    <mxGeometry relative="1" as="geometry">
                        <mxPoint x="1310" y="3190" as="targetPoint"/>
                    </mxGeometry>
                </mxCell>
                <mxCell id="713" value="&lt;b&gt;&lt;font style=&quot;font-size: 13px&quot; color=&quot;#000000&quot;&gt;RelDef&lt;br&gt;&lt;/font&gt;&lt;/b&gt;&lt;span style=&quot;color: rgb(0 , 0 , 0) ; font-size: 13px&quot;&gt;- name: &quot;BINDS_FROM&quot;&lt;/span&gt;&lt;b&gt;&lt;font style=&quot;font-size: 13px&quot; color=&quot;#000000&quot;&gt;&lt;br&gt;&lt;/font&gt;&lt;/b&gt;" style="ellipse;whiteSpace=wrap;html=1;aspect=fixed;direction=west;strokeColor=#9673a6;fillColor=#CCFF99;" parent="1" vertex="1">
                    <mxGeometry x="760" y="3000" width="120" height="120" as="geometry"/>
                </mxCell>
                <mxCell id="723" value="&lt;font style=&quot;font-size: 13px&quot; color=&quot;#000000&quot;&gt;&lt;b&gt;Type&lt;/b&gt;&lt;br&gt;- name: &quot;&lt;/font&gt;&lt;span style=&quot;color: rgb(0 , 0 , 0) ; font-size: 13px&quot;&gt;SCOPED&lt;/span&gt;&lt;font style=&quot;font-size: 13px&quot; color=&quot;#000000&quot;&gt;&quot;&lt;br&gt;&lt;/font&gt;" style="ellipse;whiteSpace=wrap;html=1;aspect=fixed;direction=west;fillColor=#ffe6cc;strokeColor=#d79b00;" parent="1" vertex="1">
                    <mxGeometry x="1240" y="2000" width="120" height="120" as="geometry"/>
                </mxCell>
                <mxCell id="733" value="HAS_TYPE" style="edgeStyle=none;html=1;" parent="1" source="729" target="723" edge="1">
                    <mxGeometry relative="1" as="geometry"/>
                </mxCell>
                <mxCell id="755" value="REL_SOURCE" style="edgeStyle=none;html=1;" parent="1" source="729" target="116" edge="1">
                    <mxGeometry relative="1" as="geometry"/>
                </mxCell>
                <mxCell id="886" value="&lt;span style=&quot;font-family: &amp;#34;helvetica&amp;#34;&quot;&gt;REL_TARGET&lt;/span&gt;" style="edgeStyle=none;html=1;" parent="1" source="729" target="870" edge="1">
                    <mxGeometry relative="1" as="geometry">
                        <mxPoint x="910" y="1540" as="targetPoint"/>
                    </mxGeometry>
                </mxCell>
                <mxCell id="729" value="&lt;b&gt;&lt;font style=&quot;font-size: 13px&quot; color=&quot;#000000&quot;&gt;RelDef&lt;br&gt;&lt;/font&gt;&lt;/b&gt;&lt;span style=&quot;color: rgb(0 , 0 , 0) ; font-size: 13px&quot;&gt;- name: &quot;&lt;/span&gt;&lt;span style=&quot;color: rgb(0 , 0 , 0) ; font-size: 13px&quot;&gt;SCOPED&lt;/span&gt;&lt;span style=&quot;color: rgb(0 , 0 , 0) ; font-size: 13px&quot;&gt;&quot;&lt;/span&gt;&lt;b&gt;&lt;font style=&quot;font-size: 13px&quot; color=&quot;#000000&quot;&gt;&lt;br&gt;&lt;/font&gt;&lt;/b&gt;" style="ellipse;whiteSpace=wrap;html=1;aspect=fixed;direction=west;strokeColor=#9673a6;fillColor=#CCFF99;" parent="1" vertex="1">
                    <mxGeometry x="1000" y="2000" width="120" height="120" as="geometry"/>
                </mxCell>
                <mxCell id="734" value="HAS_TYPE" style="edgeStyle=none;html=1;" parent="1" source="735" target="723" edge="1">
                    <mxGeometry relative="1" as="geometry">
                        <mxPoint x="3533.906723223995" y="3298.4110639800037" as="targetPoint"/>
                    </mxGeometry>
                </mxCell>
                <mxCell id="764" value="REL_SOURCE" style="edgeStyle=none;html=1;" parent="1" source="735" target="383" edge="1">
                    <mxGeometry relative="1" as="geometry"/>
                </mxCell>
                <mxCell id="774" value="&lt;span style=&quot;font-family: &amp;#34;helvetica&amp;#34;&quot;&gt;REL_TARGET&lt;/span&gt;" style="edgeStyle=none;html=1;" parent="1" source="735" target="870" edge="1">
                    <mxGeometry relative="1" as="geometry"/>
                </mxCell>
                <mxCell id="735" value="&lt;b&gt;&lt;font style=&quot;font-size: 13px&quot; color=&quot;#000000&quot;&gt;RelDef&lt;br&gt;&lt;/font&gt;&lt;/b&gt;&lt;span style=&quot;color: rgb(0 , 0 , 0) ; font-size: 13px&quot;&gt;- name: &quot;&lt;/span&gt;&lt;span style=&quot;color: rgb(0 , 0 , 0) ; font-size: 13px&quot;&gt;SCOPED&lt;/span&gt;&lt;span style=&quot;color: rgb(0 , 0 , 0) ; font-size: 13px&quot;&gt;&quot;&lt;/span&gt;&lt;b&gt;&lt;font style=&quot;font-size: 13px&quot; color=&quot;#000000&quot;&gt;&lt;br&gt;&lt;/font&gt;&lt;/b&gt;" style="ellipse;whiteSpace=wrap;html=1;aspect=fixed;direction=west;strokeColor=#9673a6;fillColor=#CCFF99;" parent="1" vertex="1">
                    <mxGeometry x="1480" y="2000" width="120" height="120" as="geometry"/>
                </mxCell>
                <mxCell id="777" value="DEFINES" style="edgeStyle=none;html=1;dashed=1;" parent="1" source="109" target="829" edge="1">
                    <mxGeometry relative="1" as="geometry">
                        <mxPoint x="4385.607392985981" y="-1609.6354556261945" as="sourcePoint"/>
                    </mxGeometry>
                </mxCell>
                <mxCell id="778" value="DEFINES" style="edgeStyle=none;html=1;dashed=1;" parent="1" source="109" target="827" edge="1">
                    <mxGeometry relative="1" as="geometry">
                        <mxPoint x="4392.293999726596" y="-1603.3281932706072" as="sourcePoint"/>
                    </mxGeometry>
                </mxCell>
                <mxCell id="779" value="DEFINES" style="edgeStyle=none;html=1;dashed=1;" parent="1" source="109" target="788" edge="1">
                    <mxGeometry relative="1" as="geometry">
                        <mxPoint x="4381.901610170977" y="-1614.1315612849976" as="sourcePoint"/>
                    </mxGeometry>
                </mxCell>
                <mxCell id="915" value="SUBCLASS_OF" style="edgeStyle=none;rounded=0;orthogonalLoop=1;jettySize=auto;html=1;" parent="1" source="780" target="882" edge="1">
                    <mxGeometry relative="1" as="geometry"/>
                </mxCell>
                <mxCell id="916" value="SUBCLASS_OF" style="edgeStyle=none;rounded=0;orthogonalLoop=1;jettySize=auto;html=1;" parent="1" source="780" target="883" edge="1">
                    <mxGeometry relative="1" as="geometry"/>
                </mxCell>
                <mxCell id="780" value="&lt;b&gt;&lt;font color=&quot;#000000&quot; style=&quot;font-size: 13px&quot;&gt;NodeDef&lt;br&gt;&lt;/font&gt;&lt;/b&gt;&lt;span style=&quot;color: rgb(0 , 0 , 0) ; font-size: 13px&quot;&gt;- name: &quot;Rel&quot;&lt;br&gt;&lt;/span&gt;&lt;font color=&quot;#000000&quot;&gt;&lt;span style=&quot;font-size: 13px&quot;&gt;- uuid: &quot;025d677e-6c95-4cb4-83a3-ec83e8b7fbae&quot;&lt;/span&gt;&lt;/font&gt;&lt;b&gt;&lt;font style=&quot;font-size: 13px&quot; color=&quot;#000000&quot;&gt;&lt;br&gt;&lt;/font&gt;&lt;/b&gt;" style="ellipse;whiteSpace=wrap;html=1;aspect=fixed;direction=west;strokeColor=#9673a6;fillColor=#CCFF99;" parent="1" vertex="1">
                    <mxGeometry x="760" y="4800" width="120" height="120" as="geometry"/>
                </mxCell>
                <mxCell id="781" value="HAS_TYPE" style="edgeStyle=none;html=1;" parent="1" source="782" target="785" edge="1">
                    <mxGeometry relative="1" as="geometry"/>
                </mxCell>
                <mxCell id="782" value="&lt;b&gt;&lt;font style=&quot;font-size: 13px&quot; color=&quot;#000000&quot;&gt;RelDef&lt;br&gt;&lt;/font&gt;&lt;/b&gt;&lt;span style=&quot;color: rgb(0 , 0 , 0) ; font-size: 13px&quot;&gt;- name: &quot;CONTAINS&quot;&lt;/span&gt;&lt;b&gt;&lt;font style=&quot;font-size: 13px&quot; color=&quot;#000000&quot;&gt;&lt;br&gt;&lt;/font&gt;&lt;/b&gt;" style="ellipse;whiteSpace=wrap;html=1;aspect=fixed;direction=west;strokeColor=#9673a6;fillColor=#CCFF99;" parent="1" vertex="1">
                    <mxGeometry x="760" y="4400" width="120" height="120" as="geometry"/>
                </mxCell>
                <mxCell id="783" value="REL_TARGET" style="edgeStyle=none;html=1;" parent="1" source="784" target="793" edge="1">
                    <mxGeometry relative="1" as="geometry"/>
                </mxCell>
                <mxCell id="784" value="&lt;b&gt;&lt;font style=&quot;font-size: 13px&quot; color=&quot;#000000&quot;&gt;RelDef&lt;br&gt;&lt;/font&gt;&lt;/b&gt;&lt;span style=&quot;color: rgb(0 , 0 , 0) ; font-size: 13px&quot;&gt;- name: &quot;CONTAINS&quot;&lt;/span&gt;&lt;b&gt;&lt;font style=&quot;font-size: 13px&quot; color=&quot;#000000&quot;&gt;&lt;br&gt;&lt;/font&gt;&lt;/b&gt;" style="ellipse;whiteSpace=wrap;html=1;aspect=fixed;direction=west;strokeColor=#9673a6;fillColor=#CCFF99;" parent="1" vertex="1">
                    <mxGeometry x="280" y="4400" width="120" height="120" as="geometry"/>
                </mxCell>
                <mxCell id="785" value="&lt;font style=&quot;font-size: 13px&quot; color=&quot;#000000&quot;&gt;&lt;b&gt;Type&lt;/b&gt;&lt;br&gt;- name: &quot;CONTAINS&quot;&lt;br&gt;&lt;/font&gt;" style="ellipse;whiteSpace=wrap;html=1;aspect=fixed;direction=west;fillColor=#ffe6cc;strokeColor=#d79b00;" parent="1" vertex="1">
                    <mxGeometry x="520" y="4400" width="120" height="120" as="geometry"/>
                </mxCell>
                <mxCell id="786" value="&lt;b&gt;&lt;font color=&quot;#000000&quot; style=&quot;font-size: 13px&quot;&gt;NodeDef&lt;br&gt;&lt;/font&gt;&lt;/b&gt;&lt;span style=&quot;color: rgb(0 , 0 , 0) ; font-size: 13px&quot;&gt;- name: &quot;Graphlet&quot;&lt;br&gt;&lt;/span&gt;&lt;font color=&quot;#000000&quot;&gt;&lt;span style=&quot;font-size: 13px&quot;&gt;- uuid: &quot;ac830eb9-274b-457f-a131-43a3d9ffc9c0&quot;&lt;/span&gt;&lt;/font&gt;&lt;b&gt;&lt;font style=&quot;font-size: 13px&quot; color=&quot;#000000&quot;&gt;&lt;br&gt;&lt;/font&gt;&lt;/b&gt;" style="ellipse;whiteSpace=wrap;html=1;aspect=fixed;direction=west;strokeColor=#9673a6;fillColor=#CCFF99;" parent="1" vertex="1">
                    <mxGeometry x="520" y="4200" width="120" height="120" as="geometry"/>
                </mxCell>
                <mxCell id="787" value="HAS_TYPE" style="edgeStyle=none;html=1;" parent="1" source="786" target="840" edge="1">
                    <mxGeometry x="0.1579" relative="1" as="geometry">
                        <mxPoint as="offset"/>
                    </mxGeometry>
                </mxCell>
                <mxCell id="788" value="&lt;font style=&quot;font-size: 13px&quot; color=&quot;#000000&quot;&gt;&lt;b&gt;Type&lt;/b&gt;&lt;br&gt;- name: &quot;REL&quot;&lt;br&gt;&lt;/font&gt;" style="ellipse;whiteSpace=wrap;html=1;aspect=fixed;direction=west;fillColor=#ffe6cc;strokeColor=#d79b00;" parent="1" vertex="1">
                    <mxGeometry x="520" y="4800" width="120" height="120" as="geometry"/>
                </mxCell>
                <mxCell id="789" value="REL_SOURCE" style="edgeStyle=none;html=1;" parent="1" source="784" target="786" edge="1">
                    <mxGeometry relative="1" as="geometry"/>
                </mxCell>
                <mxCell id="790" value="REL_SOURCE" style="edgeStyle=none;html=1;" parent="1" source="782" target="786" edge="1">
                    <mxGeometry relative="1" as="geometry"/>
                </mxCell>
                <mxCell id="791" value="HAS_TYPE" style="edgeStyle=none;html=1;" parent="1" source="784" target="785" edge="1">
                    <mxGeometry relative="1" as="geometry"/>
                </mxCell>
                <mxCell id="792" value="REL_TARGET" style="edgeStyle=none;html=1;" parent="1" source="782" target="780" edge="1">
                    <mxGeometry relative="1" as="geometry"/>
                </mxCell>
                <mxCell id="913" value="SUBCLASS_OF" style="rounded=0;orthogonalLoop=1;jettySize=auto;html=1;" parent="1" source="793" target="882" edge="1">
                    <mxGeometry relative="1" as="geometry"/>
                </mxCell>
                <mxCell id="914" value="SUBCLASS_OF" style="edgeStyle=none;rounded=0;orthogonalLoop=1;jettySize=auto;html=1;" parent="1" source="793" target="883" edge="1">
                    <mxGeometry relative="1" as="geometry"/>
                </mxCell>
                <mxCell id="793" value="&lt;b&gt;&lt;font color=&quot;#000000&quot; style=&quot;font-size: 13px&quot;&gt;NodeDef&lt;br&gt;&lt;/font&gt;&lt;/b&gt;&lt;span style=&quot;color: rgb(0 , 0 , 0) ; font-size: 13px&quot;&gt;- name: &quot;Node&quot;&lt;br&gt;&lt;/span&gt;&lt;font color=&quot;#000000&quot;&gt;&lt;span style=&quot;font-size: 13px&quot;&gt;- uuid: &quot;1e5aeb35-243d-4126-9e61-ed08fc8a6cea&quot;&lt;/span&gt;&lt;/font&gt;&lt;b&gt;&lt;font style=&quot;font-size: 13px&quot; color=&quot;#000000&quot;&gt;&lt;br&gt;&lt;/font&gt;&lt;/b&gt;" style="ellipse;whiteSpace=wrap;html=1;aspect=fixed;direction=west;strokeColor=#9673a6;fillColor=#CCFF99;" parent="1" vertex="1">
                    <mxGeometry x="280" y="4800" width="120" height="120" as="geometry"/>
                </mxCell>
                <mxCell id="794" value="HAS_TYPE" style="edgeStyle=none;html=1;" parent="1" source="797" target="802" edge="1">
                    <mxGeometry relative="1" as="geometry">
                        <Array as="points"/>
                    </mxGeometry>
                </mxCell>
                <mxCell id="795" value="REL_SOURCE" style="edgeStyle=none;html=1;" parent="1" source="797" target="793" edge="1">
                    <mxGeometry relative="1" as="geometry"/>
                </mxCell>
                <mxCell id="796" value="REL_TARGET" style="edgeStyle=none;html=1;" parent="1" source="797" target="841" edge="1">
                    <mxGeometry relative="1" as="geometry">
                        <mxPoint x="1241.2468390260874" y="5072.168240446803" as="targetPoint"/>
                    </mxGeometry>
                </mxCell>
                <mxCell id="797" value="&lt;b&gt;&lt;font style=&quot;font-size: 13px&quot; color=&quot;#000000&quot;&gt;RelDef&lt;br&gt;&lt;/font&gt;&lt;/b&gt;&lt;span style=&quot;color: rgb(0 , 0 , 0) ; font-size: 13px&quot;&gt;- name: &quot;DEFINED_BY&quot;&lt;/span&gt;&lt;b&gt;&lt;font style=&quot;font-size: 13px&quot; color=&quot;#000000&quot;&gt;&lt;br&gt;&lt;/font&gt;&lt;/b&gt;" style="ellipse;whiteSpace=wrap;html=1;aspect=fixed;direction=west;strokeColor=#9673a6;fillColor=#CCFF99;" parent="1" vertex="1">
                    <mxGeometry x="280" y="5200" width="120" height="120" as="geometry"/>
                </mxCell>
                <mxCell id="798" value="HAS_TYPE" style="edgeStyle=none;html=1;" parent="1" source="801" target="802" edge="1">
                    <mxGeometry relative="1" as="geometry">
                        <mxPoint x="3510" y="3290" as="targetPoint"/>
                    </mxGeometry>
                </mxCell>
                <mxCell id="799" value="REL_SOURCE" style="edgeStyle=none;html=1;" parent="1" source="801" target="780" edge="1">
                    <mxGeometry relative="1" as="geometry">
                        <mxPoint x="3460" y="3000" as="sourcePoint"/>
                    </mxGeometry>
                </mxCell>
                <mxCell id="800" value="REL_TARGET" style="edgeStyle=none;html=1;" parent="1" source="801" target="836" edge="1">
                    <mxGeometry relative="1" as="geometry">
                        <mxPoint x="1370" y="5460" as="targetPoint"/>
                    </mxGeometry>
                </mxCell>
                <mxCell id="801" value="&lt;b&gt;&lt;font style=&quot;font-size: 13px&quot; color=&quot;#000000&quot;&gt;RelDef&lt;br&gt;&lt;/font&gt;&lt;/b&gt;&lt;span style=&quot;color: rgb(0 , 0 , 0) ; font-size: 13px&quot;&gt;- name: &quot;DEFINED_BY&quot;&lt;/span&gt;&lt;b&gt;&lt;font style=&quot;font-size: 13px&quot; color=&quot;#000000&quot;&gt;&lt;br&gt;&lt;/font&gt;&lt;/b&gt;" style="ellipse;whiteSpace=wrap;html=1;aspect=fixed;direction=west;strokeColor=#9673a6;fillColor=#CCFF99;" parent="1" vertex="1">
                    <mxGeometry x="760" y="5200" width="120" height="120" as="geometry"/>
                </mxCell>
                <mxCell id="802" value="&lt;font color=&quot;#000000&quot;&gt;&lt;b style=&quot;font-size: 13px&quot;&gt;Type&lt;/b&gt;&lt;br&gt;&lt;span style=&quot;font-size: 13px&quot;&gt;- name: &quot;DEFINED_BY&quot;&lt;/span&gt;&lt;br&gt;&lt;/font&gt;" style="ellipse;whiteSpace=wrap;html=1;aspect=fixed;direction=west;fillColor=#ffe6cc;strokeColor=#d79b00;" parent="1" vertex="1">
                    <mxGeometry x="520" y="5200" width="120" height="120" as="geometry"/>
                </mxCell>
                <mxCell id="803" value="HAS_TYPE" style="edgeStyle=none;html=1;" parent="1" source="830" target="788" edge="1">
                    <mxGeometry relative="1" as="geometry"/>
                </mxCell>
                <mxCell id="804" value="REL_TARGET" style="edgeStyle=none;html=1;" parent="1" source="829" target="793" edge="1">
                    <mxGeometry relative="1" as="geometry"/>
                </mxCell>
                <mxCell id="805" value="REL_TARGET" style="edgeStyle=none;html=1;" parent="1" source="830" target="793" edge="1">
                    <mxGeometry relative="1" as="geometry">
                        <mxPoint x="3180" y="2550" as="targetPoint"/>
                        <mxPoint as="offset"/>
                    </mxGeometry>
                </mxCell>
                <mxCell id="806" value="REL_SOURCE" style="edgeStyle=none;html=1;" parent="1" source="829" target="780" edge="1">
                    <mxGeometry relative="1" as="geometry"/>
                </mxCell>
                <mxCell id="807" value="REL_SOURCE" style="edgeStyle=none;html=1;" parent="1" source="830" target="780" edge="1">
                    <mxGeometry relative="1" as="geometry"/>
                </mxCell>
                <mxCell id="808" value="REL_SOURCE" style="edgeStyle=none;html=1;" parent="1" source="811" target="793" edge="1">
                    <mxGeometry relative="1" as="geometry">
                        <Array as="points">
                            <mxPoint x="240" y="5260"/>
                        </Array>
                    </mxGeometry>
                </mxCell>
                <mxCell id="809" value="HAS_TYPE" style="edgeStyle=none;html=1;" parent="1" source="811" target="827" edge="1">
                    <mxGeometry relative="1" as="geometry"/>
                </mxCell>
                <mxCell id="810" value="REL_TARGET" style="edgeStyle=none;html=1;" parent="1" source="811" target="837" edge="1">
                    <mxGeometry relative="1" as="geometry">
                        <mxPoint x="480" y="6000" as="targetPoint"/>
                    </mxGeometry>
                </mxCell>
                <mxCell id="811" value="&lt;b&gt;&lt;font style=&quot;font-size: 13px&quot; color=&quot;#000000&quot;&gt;RelDef&lt;br&gt;&lt;/font&gt;&lt;/b&gt;&lt;span style=&quot;color: rgb(0 , 0 , 0) ; font-size: 13px&quot;&gt;- name: &quot;HAS_TYPE&quot;&lt;/span&gt;&lt;b&gt;&lt;font style=&quot;font-size: 13px&quot; color=&quot;#000000&quot;&gt;&lt;br&gt;&lt;/font&gt;&lt;/b&gt;" style="ellipse;whiteSpace=wrap;html=1;aspect=fixed;direction=west;strokeColor=#9673a6;fillColor=#CCFF99;" parent="1" vertex="1">
                    <mxGeometry x="280" y="5400" width="120" height="120" as="geometry"/>
                </mxCell>
                <mxCell id="812" value="REL_SOURCE" style="edgeStyle=none;html=1;" parent="1" source="815" target="780" edge="1">
                    <mxGeometry relative="1" as="geometry">
                        <Array as="points">
                            <mxPoint x="920" y="5260"/>
                        </Array>
                    </mxGeometry>
                </mxCell>
                <mxCell id="813" value="HAS_TYPE" style="edgeStyle=none;html=1;" parent="1" source="815" target="827" edge="1">
                    <mxGeometry relative="1" as="geometry"/>
                </mxCell>
                <mxCell id="814" value="REL_TARGET" style="edgeStyle=none;html=1;" parent="1" source="815" target="837" edge="1">
                    <mxGeometry relative="1" as="geometry">
                        <mxPoint x="780" y="6020" as="targetPoint"/>
                    </mxGeometry>
                </mxCell>
                <mxCell id="815" value="&lt;b&gt;&lt;font style=&quot;font-size: 13px&quot; color=&quot;#000000&quot;&gt;RelDef&lt;br&gt;&lt;/font&gt;&lt;/b&gt;&lt;span style=&quot;color: rgb(0 , 0 , 0) ; font-size: 13px&quot;&gt;- name: &quot;HAS_TYPE&quot;&lt;/span&gt;&lt;b&gt;&lt;font style=&quot;font-size: 13px&quot; color=&quot;#000000&quot;&gt;&lt;br&gt;&lt;/font&gt;&lt;/b&gt;" style="ellipse;whiteSpace=wrap;html=1;aspect=fixed;direction=west;strokeColor=#9673a6;fillColor=#CCFF99;" parent="1" vertex="1">
                    <mxGeometry x="760" y="5400" width="120" height="120" as="geometry"/>
                </mxCell>
                <mxCell id="816" value="DEFINES" style="edgeStyle=none;html=1;dashed=1;" parent="1" source="109" target="801" edge="1">
                    <mxGeometry relative="1" as="geometry">
                        <mxPoint x="4394.060985661059" y="-1601.954321231215" as="sourcePoint"/>
                    </mxGeometry>
                </mxCell>
                <mxCell id="817" value="DEFINES" style="edgeStyle=none;html=1;dashed=1;" parent="1" source="109" target="780" edge="1">
                    <mxGeometry relative="1" as="geometry">
                        <mxPoint x="4386.036110013025" y="-1609.1689287769418" as="sourcePoint"/>
                    </mxGeometry>
                </mxCell>
                <mxCell id="818" value="DEFINES" style="edgeStyle=none;html=1;dashed=1;" parent="1" source="109" target="815" edge="1">
                    <mxGeometry relative="1" as="geometry">
                        <mxPoint x="4397.339783486799" y="-1599.6679996692096" as="sourcePoint"/>
                    </mxGeometry>
                </mxCell>
                <mxCell id="819" value="DEFINES" style="edgeStyle=none;html=1;dashed=1;" parent="1" source="109" target="797" edge="1">
                    <mxGeometry relative="1" as="geometry">
                        <mxPoint x="4385.337861787432" y="-1609.9338870080492" as="sourcePoint"/>
                    </mxGeometry>
                </mxCell>
                <mxCell id="820" value="DEFINES" style="edgeStyle=none;html=1;dashed=1;" parent="1" source="109" target="782" edge="1">
                    <mxGeometry relative="1" as="geometry">
                        <mxPoint x="4376.775353454092" y="-1622.302761869395" as="sourcePoint"/>
                    </mxGeometry>
                </mxCell>
                <mxCell id="821" value="DEFINES" style="edgeStyle=none;html=1;dashed=1;" parent="1" source="109" target="811" edge="1">
                    <mxGeometry relative="1" as="geometry">
                        <mxPoint x="4388.298674189153" y="-1606.8606974370541" as="sourcePoint"/>
                    </mxGeometry>
                </mxCell>
                <mxCell id="822" value="DEFINES" style="edgeStyle=none;html=1;dashed=1;" parent="1" source="109" target="793" edge="1">
                    <mxGeometry relative="1" as="geometry">
                        <mxPoint x="4379.075027537959" y="-1618.27229633674" as="sourcePoint"/>
                    </mxGeometry>
                </mxCell>
                <mxCell id="823" value="DEFINES" style="edgeStyle=none;html=1;dashed=1;" parent="1" source="109" target="784" edge="1">
                    <mxGeometry relative="1" as="geometry">
                        <mxPoint x="4373.353830367054" y="-1630.2209336436026" as="sourcePoint"/>
                    </mxGeometry>
                </mxCell>
                <mxCell id="824" value="DEFINES" style="edgeStyle=none;html=1;dashed=1;" parent="1" source="109" target="802" edge="1">
                    <mxGeometry relative="1" as="geometry">
                        <mxPoint x="4389.103497985733" y="-1606.096969091188" as="sourcePoint"/>
                    </mxGeometry>
                </mxCell>
                <mxCell id="825" value="DEFINES" style="edgeStyle=none;html=1;dashed=1;" parent="1" source="109" target="786" edge="1">
                    <mxGeometry relative="1" as="geometry">
                        <mxPoint x="4371.840888467475" y="-1635.2515171711775" as="sourcePoint"/>
                    </mxGeometry>
                </mxCell>
                <mxCell id="826" value="DEFINES" style="edgeStyle=none;html=1;dashed=1;" parent="1" source="109" target="785" edge="1">
                    <mxGeometry relative="1" as="geometry">
                        <mxPoint x="4374.640422584771" y="-1626.8630773779869" as="sourcePoint"/>
                    </mxGeometry>
                </mxCell>
                <mxCell id="827" value="&lt;font style=&quot;font-size: 13px&quot; color=&quot;#000000&quot;&gt;&lt;b&gt;Type&lt;/b&gt;&lt;br&gt;- name: &quot;HAS_TYPE&quot;&lt;br&gt;&lt;/font&gt;" style="ellipse;whiteSpace=wrap;html=1;aspect=fixed;direction=west;fillColor=#ffe6cc;strokeColor=#d79b00;" parent="1" vertex="1">
                    <mxGeometry x="520" y="5400" width="120" height="120" as="geometry"/>
                </mxCell>
                <mxCell id="828" value="HAS_TYPE" style="edgeStyle=none;html=1;" parent="1" source="829" target="788" edge="1">
                    <mxGeometry relative="1" as="geometry"/>
                </mxCell>
                <mxCell id="829" value="&lt;b&gt;&lt;font style=&quot;font-size: 13px&quot; color=&quot;#000000&quot;&gt;RelDef&lt;br&gt;&lt;/font&gt;&lt;/b&gt;&lt;span style=&quot;color: rgb(0 , 0 , 0) ; font-size: 13px&quot;&gt;- name: &quot;REL_TARGET&quot;&lt;/span&gt;&lt;b&gt;&lt;font style=&quot;font-size: 13px&quot; color=&quot;#000000&quot;&gt;&lt;br&gt;&lt;/font&gt;&lt;/b&gt;" style="ellipse;whiteSpace=wrap;html=1;aspect=fixed;direction=west;strokeColor=#9673a6;fillColor=#CCFF99;" parent="1" vertex="1">
                    <mxGeometry x="520" y="5000" width="120" height="120" as="geometry"/>
                </mxCell>
                <mxCell id="830" value="&lt;b&gt;&lt;font style=&quot;font-size: 13px&quot; color=&quot;#000000&quot;&gt;RelDef&lt;br&gt;&lt;/font&gt;&lt;/b&gt;&lt;span style=&quot;color: rgb(0 , 0 , 0) ; font-size: 13px&quot;&gt;- name: &quot;REL_SOURCE&quot;&lt;/span&gt;&lt;b&gt;&lt;font style=&quot;font-size: 13px&quot; color=&quot;#000000&quot;&gt;&lt;br&gt;&lt;/font&gt;&lt;/b&gt;" style="ellipse;whiteSpace=wrap;html=1;aspect=fixed;direction=west;strokeColor=#9673a6;fillColor=#CCFF99;" parent="1" vertex="1">
                    <mxGeometry x="520" y="4600" width="120" height="120" as="geometry"/>
                </mxCell>
                <mxCell id="831" value="DEPENDS_ON" style="edgeStyle=none;html=1;" parent="1" source="109" target="839" edge="1">
                    <mxGeometry relative="1" as="geometry">
                        <mxPoint x="4408.996766802506" y="-1593.7962261474681" as="sourcePoint"/>
                    </mxGeometry>
                </mxCell>
                <mxCell id="833" value="DEFINES" style="edgeStyle=none;html=1;dashed=1;" parent="1" source="839" target="836" edge="1">
                    <mxGeometry relative="1" as="geometry"/>
                </mxCell>
                <mxCell id="834" value="DEFINES" style="edgeStyle=none;html=1;dashed=1;" parent="1" source="839" target="841" edge="1">
                    <mxGeometry relative="1" as="geometry">
                        <mxPoint x="3057.4817028532916" y="5013.147871433386" as="targetPoint"/>
                    </mxGeometry>
                </mxCell>
                <mxCell id="835" value="DEFINES" style="edgeStyle=none;html=1;dashed=1;" parent="1" source="839" target="837" edge="1">
                    <mxGeometry relative="1" as="geometry"/>
                </mxCell>
                <mxCell id="836" value="&lt;b&gt;&lt;font style=&quot;font-size: 13px&quot; color=&quot;#000000&quot;&gt;@@NodeDef&lt;br&gt;&lt;/font&gt;&lt;/b&gt;&lt;span style=&quot;color: rgb(0 , 0 , 0) ; font-size: 13px&quot;&gt;- name: &quot;RelDef&quot;&lt;br&gt;&lt;/span&gt;&lt;font color=&quot;#000000&quot;&gt;&lt;span style=&quot;font-size: 13px&quot;&gt;- uuid: &quot;e255a339-9763-48b0-9ba8-e4de15160da3&quot;&lt;/span&gt;&lt;br&gt;&lt;/font&gt;" style="ellipse;whiteSpace=wrap;html=1;aspect=fixed;direction=west;strokeColor=#9673a6;fillColor=#CCFF99;" parent="1" vertex="1">
                    <mxGeometry x="3280" y="5000" width="120" height="120" as="geometry"/>
                </mxCell>
                <mxCell id="837" value="&lt;b&gt;&lt;font style=&quot;font-size: 13px&quot; color=&quot;#000000&quot;&gt;@@NodeDef&lt;br&gt;&lt;/font&gt;&lt;/b&gt;&lt;span style=&quot;color: rgb(0 , 0 , 0) ; font-size: 13px&quot;&gt;- name: &quot;Type&quot;&lt;br&gt;&lt;/span&gt;&lt;font color=&quot;#000000&quot;&gt;&lt;span style=&quot;font-size: 13px&quot;&gt;- uuid: &quot;1a1565c8-9f6f-4391-a7b4-0aa98c778e51&quot;&lt;/span&gt;&lt;br&gt;&lt;/font&gt;" style="ellipse;whiteSpace=wrap;html=1;aspect=fixed;direction=west;strokeColor=#9673a6;fillColor=#CCFF99;" parent="1" vertex="1">
                    <mxGeometry x="2960" y="5200" width="120" height="120" as="geometry"/>
                </mxCell>
                <mxCell id="838" value="DEFINES" style="edgeStyle=none;html=1;dashed=1;" parent="1" source="839" target="840" edge="1">
                    <mxGeometry relative="1" as="geometry"/>
                </mxCell>
                <mxCell id="839" value="&lt;b style=&quot;color: rgb(0 , 0 , 0) ; font-size: 13px&quot;&gt;@@Metagraph&lt;/b&gt;&lt;br style=&quot;color: rgb(0 , 0 , 0)&quot;&gt;&lt;span style=&quot;color: rgb(0 , 0 , 0) ; font-size: 13px&quot;&gt;- name: &quot;Meta&quot;&lt;/span&gt;&lt;br style=&quot;color: rgb(0 , 0 , 0)&quot;&gt;&lt;span style=&quot;color: rgb(0 , 0 , 0) ; font-size: 13px&quot;&gt;- uuid: &quot;d9262ce3-7847-4263-aa18-a27bcdc1f642&quot;&lt;/span&gt;&lt;font style=&quot;font-size: 13px&quot; color=&quot;#000000&quot;&gt;&lt;br&gt;&lt;/font&gt;" style="ellipse;whiteSpace=wrap;html=1;aspect=fixed;direction=west;strokeColor=#56517e;fillColor=#d0cee2;" parent="1" vertex="1">
                    <mxGeometry x="3120" y="4800" width="120" height="120" as="geometry"/>
                </mxCell>
                <mxCell id="840" value="&lt;font color=&quot;#000000&quot;&gt;&lt;b style=&quot;font-size: 13px&quot;&gt;@@Type&lt;/b&gt;&lt;br&gt;&lt;span style=&quot;font-size: 13px&quot;&gt;- name: &quot;Named&quot;&lt;/span&gt;&lt;br&gt;&lt;span style=&quot;font-size: 13px&quot;&gt;- uuid: &quot;73c199cd-87ee-478d-86bb-61e85e67e371&quot;&lt;/span&gt;&lt;br&gt;&lt;/font&gt;" style="ellipse;whiteSpace=wrap;html=1;aspect=fixed;direction=west;fillColor=#ffe6cc;strokeColor=#d79b00;" parent="1" vertex="1">
                    <mxGeometry x="2960" y="4200" width="120" height="120" as="geometry"/>
                </mxCell>
                <mxCell id="841" value="&lt;b&gt;&lt;font style=&quot;font-size: 13px&quot; color=&quot;#000000&quot;&gt;@@AbstractNodeDef&lt;br&gt;&lt;/font&gt;&lt;/b&gt;&lt;span style=&quot;color: rgb(0 , 0 , 0) ; font-size: 13px&quot;&gt;- name: &quot;NodeDefinition&quot;&lt;br&gt;&lt;/span&gt;&lt;font color=&quot;#000000&quot;&gt;&lt;span style=&quot;font-size: 13px&quot;&gt;- uuid: &quot;fd4d388c-b1b6-4f7a-b543-16f3011de8d3&lt;/span&gt;&lt;span style=&quot;font-size: 13px&quot;&gt;&quot;&lt;/span&gt;&lt;br&gt;&lt;/font&gt;" style="ellipse;whiteSpace=wrap;html=1;aspect=fixed;direction=west;strokeColor=#9673a6;fillColor=#CCFF99;" parent="1" vertex="1">
                    <mxGeometry x="2960" y="5000" width="120" height="120" as="geometry"/>
                </mxCell>
                <mxCell id="848" value="SUBCLASS_OF" style="edgeStyle=none;html=1;" parent="1" source="842" target="846" edge="1">
                    <mxGeometry relative="1" as="geometry"/>
                </mxCell>
                <mxCell id="842" value="&lt;b&gt;&lt;font style=&quot;font-size: 13px&quot; color=&quot;#000000&quot;&gt;AbstractNodeDef&lt;br&gt;&lt;/font&gt;&lt;/b&gt;&lt;span style=&quot;color: rgb(0 , 0 , 0) ; font-size: 13px&quot;&gt;- name: &quot;Step&quot;&lt;/span&gt;&lt;font color=&quot;#000000&quot;&gt;&lt;br&gt;&lt;/font&gt;" style="ellipse;whiteSpace=wrap;html=1;aspect=fixed;direction=west;strokeColor=#9673a6;fillColor=#CCFF99;" parent="1" vertex="1">
                    <mxGeometry x="1000" y="-390" width="120" height="120" as="geometry"/>
                </mxCell>
                <mxCell id="846" value="&lt;b&gt;&lt;font style=&quot;font-size: 13px&quot; color=&quot;#000000&quot;&gt;AbstractNodeDef&lt;br&gt;&lt;/font&gt;&lt;/b&gt;&lt;span style=&quot;color: rgb(0 , 0 , 0) ; font-size: 13px&quot;&gt;- name: &quot;FunctionImplementation&quot;&lt;/span&gt;&lt;font color=&quot;#000000&quot;&gt;&lt;br&gt;&lt;/font&gt;" style="ellipse;whiteSpace=wrap;html=1;aspect=fixed;direction=west;strokeColor=#9673a6;fillColor=#CCFF99;" parent="1" vertex="1">
                    <mxGeometry x="1920" y="-400" width="120" height="120" as="geometry"/>
                </mxCell>
                <mxCell id="850" value="&lt;b&gt;&lt;font style=&quot;font-size: 13px&quot; color=&quot;#000000&quot;&gt;AbstractNodeDef&lt;br&gt;&lt;/font&gt;&lt;/b&gt;&lt;span style=&quot;color: rgb(0 , 0 , 0) ; font-size: 13px&quot;&gt;- name: &quot;FunctionCall&quot;&lt;/span&gt;&lt;font color=&quot;#000000&quot;&gt;&lt;br&gt;&lt;/font&gt;" style="ellipse;whiteSpace=wrap;html=1;aspect=fixed;direction=west;strokeColor=#9673a6;fillColor=#CCFF99;" parent="1" vertex="1">
                    <mxGeometry x="1049" y="840" width="120" height="120" as="geometry"/>
                </mxCell>
                <mxCell id="852" value="&lt;span style=&quot;font-family: &amp;#34;helvetica&amp;#34;&quot;&gt;REL_SOURCE&lt;/span&gt;" style="edgeStyle=none;html=1;" parent="1" source="851" target="850" edge="1">
                    <mxGeometry relative="1" as="geometry">
                        <Array as="points">
                            <mxPoint x="940" y="800"/>
                        </Array>
                    </mxGeometry>
                </mxCell>
                <mxCell id="853" value="&lt;span style=&quot;font-family: &amp;#34;helvetica&amp;#34;&quot;&gt;REL_TARGET&lt;/span&gt;" style="edgeStyle=none;html=1;" parent="1" source="851" target="850" edge="1">
                    <mxGeometry relative="1" as="geometry">
                        <Array as="points">
                            <mxPoint x="940" y="920"/>
                        </Array>
                    </mxGeometry>
                </mxCell>
                <mxCell id="851" value="&lt;b&gt;&lt;font style=&quot;font-size: 13px&quot; color=&quot;#000000&quot;&gt;RelDef&lt;br&gt;&lt;/font&gt;&lt;/b&gt;&lt;span style=&quot;color: rgb(0 , 0 , 0) ; font-size: 13px&quot;&gt;- name: &quot;&lt;/span&gt;&lt;span style=&quot;color: rgb(0 , 0 , 0) ; font-size: 13px&quot;&gt;NEXT&lt;/span&gt;&lt;span style=&quot;color: rgb(0 , 0 , 0) ; font-size: 13px&quot;&gt;&quot;&lt;/span&gt;&lt;b&gt;&lt;font style=&quot;font-size: 13px&quot; color=&quot;#000000&quot;&gt;&lt;br&gt;&lt;/font&gt;&lt;/b&gt;" style="ellipse;whiteSpace=wrap;html=1;aspect=fixed;direction=west;strokeColor=#9673a6;fillColor=#CCFF99;" parent="1" vertex="1">
                    <mxGeometry x="720" y="810" width="120" height="120" as="geometry"/>
                </mxCell>
                <mxCell id="857" value="SUBCLASS_OF" style="edgeStyle=none;html=1;" parent="1" source="854" target="850" edge="1">
                    <mxGeometry relative="1" as="geometry"/>
                </mxCell>
                <mxCell id="854" value="&lt;b&gt;&lt;font style=&quot;font-size: 13px&quot; color=&quot;#000000&quot;&gt;AbstractNodeDef&lt;br&gt;&lt;/font&gt;&lt;/b&gt;&lt;span style=&quot;color: rgb(0 , 0 , 0) ; font-size: 13px&quot;&gt;- name: &quot;GraphletFunctionCall&quot;&lt;/span&gt;&lt;font color=&quot;#000000&quot;&gt;&lt;br&gt;&lt;/font&gt;" style="ellipse;whiteSpace=wrap;html=1;aspect=fixed;direction=west;strokeColor=#9673a6;fillColor=#CCFF99;" parent="1" vertex="1">
                    <mxGeometry x="440" y="970" width="120" height="120" as="geometry"/>
                </mxCell>
                <mxCell id="856" value="SUBCLASS_OF" style="edgeStyle=none;html=1;" parent="1" source="855" target="850" edge="1">
                    <mxGeometry relative="1" as="geometry"/>
                </mxCell>
                <mxCell id="855" value="&lt;b&gt;&lt;font style=&quot;font-size: 13px&quot; color=&quot;#000000&quot;&gt;AbstractNodeDef&lt;br&gt;&lt;/font&gt;&lt;/b&gt;&lt;span style=&quot;color: rgb(0 , 0 , 0) ; font-size: 13px&quot;&gt;- name: &quot;ValueFunctionCall&quot;&lt;/span&gt;&lt;font color=&quot;#000000&quot;&gt;&lt;br&gt;&lt;/font&gt;" style="ellipse;whiteSpace=wrap;html=1;aspect=fixed;direction=west;strokeColor=#9673a6;fillColor=#CCFF99;" parent="1" vertex="1">
                    <mxGeometry x="1480" y="1000" width="120" height="120" as="geometry"/>
                </mxCell>
                <mxCell id="862" value="SUBCLASS_OF" style="edgeStyle=none;html=1;" parent="1" source="858" target="854" edge="1">
                    <mxGeometry relative="1" as="geometry"/>
                </mxCell>
                <mxCell id="858" value="&lt;b&gt;&lt;font style=&quot;font-size: 13px&quot; color=&quot;#000000&quot;&gt;NodeDef&lt;br&gt;&lt;/font&gt;&lt;/b&gt;&lt;span style=&quot;color: rgb(0 , 0 , 0) ; font-size: 13px&quot;&gt;- name: &quot;&lt;/span&gt;&lt;span style=&quot;color: rgb(0 , 0 , 0) ; font-size: 13px&quot;&gt;GraphFilter&lt;/span&gt;&lt;span style=&quot;color: rgb(0 , 0 , 0) ; font-size: 13px&quot;&gt;&quot;&lt;/span&gt;&lt;b&gt;&lt;font style=&quot;font-size: 13px&quot; color=&quot;#000000&quot;&gt;&lt;br&gt;&lt;/font&gt;&lt;/b&gt;" style="ellipse;whiteSpace=wrap;html=1;aspect=fixed;direction=west;strokeColor=#9673a6;fillColor=#CCFF99;" parent="1" vertex="1">
                    <mxGeometry x="760" y="1200" width="120" height="120" as="geometry"/>
                </mxCell>
                <mxCell id="864" value="SUBCLASS_OF" style="edgeStyle=none;html=1;" parent="1" source="863" target="855" edge="1">
                    <mxGeometry relative="1" as="geometry"/>
                </mxCell>
                <mxCell id="863" value="&lt;b&gt;&lt;font style=&quot;font-size: 13px&quot; color=&quot;#000000&quot;&gt;NodeDef&lt;br&gt;&lt;/font&gt;&lt;/b&gt;&lt;span style=&quot;color: rgb(0 , 0 , 0) ; font-size: 13px&quot;&gt;- name: &quot;&lt;/span&gt;&lt;span style=&quot;color: rgb(0 , 0 , 0) ; font-size: 13px&quot;&gt;ValueFilter&lt;/span&gt;&lt;span style=&quot;color: rgb(0 , 0 , 0) ; font-size: 13px&quot;&gt;&quot;&lt;/span&gt;&lt;b&gt;&lt;font style=&quot;font-size: 13px&quot; color=&quot;#000000&quot;&gt;&lt;br&gt;&lt;/font&gt;&lt;/b&gt;" style="ellipse;whiteSpace=wrap;html=1;aspect=fixed;direction=west;strokeColor=#9673a6;fillColor=#CCFF99;" parent="1" vertex="1">
                    <mxGeometry x="1240" y="1200" width="120" height="120" as="geometry"/>
                </mxCell>
                <mxCell id="866" value="HAS_PROPERTY" style="edgeStyle=none;html=1;" parent="1" source="597" target="867" edge="1">
                    <mxGeometry relative="1" as="geometry">
                        <mxPoint x="100" y="1800" as="sourcePoint"/>
                    </mxGeometry>
                </mxCell>
                <mxCell id="867" value="&lt;font style=&quot;font-size: 13px&quot; color=&quot;#000000&quot;&gt;&lt;b&gt;Property&lt;/b&gt;&lt;br&gt;- name: &quot;optional&quot;&lt;br&gt;- type: &quot;Boolean&quot;&lt;br&gt;&lt;/font&gt;" style="ellipse;whiteSpace=wrap;html=1;aspect=fixed;direction=west;strokeColor=#d79b00;fillColor=#FF9999;" parent="1" vertex="1">
                    <mxGeometry x="40" y="1600" width="120" height="120" as="geometry"/>
                </mxCell>
                <mxCell id="868" value="HAS_PROPERTY" style="edgeStyle=none;html=1;" parent="1" source="608" target="869" edge="1">
                    <mxGeometry relative="1" as="geometry">
                        <mxPoint x="820" y="1520" as="sourcePoint"/>
                    </mxGeometry>
                </mxCell>
                <mxCell id="869" value="&lt;font style=&quot;font-size: 13px&quot; color=&quot;#000000&quot;&gt;&lt;b&gt;Property&lt;/b&gt;&lt;br&gt;- name: &quot;negative&quot;&lt;br&gt;- type: &quot;Boolean&quot;&lt;br&gt;&lt;/font&gt;" style="ellipse;whiteSpace=wrap;html=1;aspect=fixed;direction=west;strokeColor=#d79b00;fillColor=#FF9999;" parent="1" vertex="1">
                    <mxGeometry x="760" y="1600" width="120" height="120" as="geometry"/>
                </mxCell>
                <mxCell id="870" value="&lt;b&gt;&lt;font style=&quot;font-size: 13px&quot; color=&quot;#000000&quot;&gt;AbstractNodeDef&lt;br&gt;&lt;/font&gt;&lt;/b&gt;&lt;span style=&quot;color: rgb(0 , 0 , 0) ; font-size: 13px&quot;&gt;- name: &quot;VariableScope&quot;&lt;/span&gt;&lt;font color=&quot;#000000&quot;&gt;&lt;br&gt;&lt;/font&gt;" style="ellipse;whiteSpace=wrap;html=1;aspect=fixed;direction=west;strokeColor=#9673a6;fillColor=#CCFF99;" parent="1" vertex="1">
                    <mxGeometry x="1000" y="1000" width="120" height="120" as="geometry"/>
                </mxCell>
                <mxCell id="882" value="&lt;b&gt;&lt;font style=&quot;font-size: 13px&quot; color=&quot;#000000&quot;&gt;AbstractNodeDef&lt;br&gt;&lt;/font&gt;&lt;/b&gt;&lt;span style=&quot;color: rgb(0 , 0 , 0) ; font-size: 13px&quot;&gt;- name: &quot;ValueSource&quot;&lt;/span&gt;&lt;font color=&quot;#000000&quot;&gt;&lt;br&gt;&lt;/font&gt;" style="ellipse;whiteSpace=wrap;html=1;aspect=fixed;direction=west;strokeColor=#9673a6;fillColor=#CCFF99;" parent="1" vertex="1">
                    <mxGeometry x="760" y="3200" width="120" height="120" as="geometry"/>
                </mxCell>
                <mxCell id="883" value="&lt;b&gt;&lt;font style=&quot;font-size: 13px&quot; color=&quot;#000000&quot;&gt;AbstractNodeDef&lt;br&gt;&lt;/font&gt;&lt;/b&gt;&lt;span style=&quot;color: rgb(0 , 0 , 0) ; font-size: 13px&quot;&gt;- name: &quot;ValueTarget&quot;&lt;/span&gt;&lt;font color=&quot;#000000&quot;&gt;&lt;br&gt;&lt;/font&gt;" style="ellipse;whiteSpace=wrap;html=1;aspect=fixed;direction=west;strokeColor=#9673a6;fillColor=#CCFF99;" parent="1" vertex="1">
                    <mxGeometry x="1240" y="3200" width="120" height="120" as="geometry"/>
                </mxCell>
                <mxCell id="888" value="&lt;font color=&quot;#000000&quot;&gt;&lt;b style=&quot;font-size: 13px&quot;&gt;@@Type&lt;/b&gt;&lt;br&gt;&lt;span style=&quot;font-size: 13px&quot;&gt;- name: &quot;Typed&quot;&lt;/span&gt;&lt;br&gt;&lt;span style=&quot;font-size: 13px&quot;&gt;- uuid: &quot;19d03562-b92d-4754-a84a-961ec8f4023c&quot;&lt;/span&gt;&lt;br&gt;&lt;/font&gt;" style="ellipse;whiteSpace=wrap;html=1;aspect=fixed;direction=west;fillColor=#ffe6cc;strokeColor=#d79b00;" parent="1" vertex="1">
                    <mxGeometry x="3280" y="4200" width="120" height="120" as="geometry"/>
                </mxCell>
                <mxCell id="889" value="DEFINES" style="edgeStyle=none;html=1;dashed=1;" parent="1" source="839" target="888" edge="1">
                    <mxGeometry relative="1" as="geometry">
                        <mxPoint x="3190" y="4810" as="sourcePoint"/>
                        <mxPoint x="3190" y="4330" as="targetPoint"/>
                    </mxGeometry>
                </mxCell>
                <mxCell id="912" value="HAS_TYPE" style="edgeStyle=none;html=1;" parent="1" source="304" target="840" edge="1">
                    <mxGeometry relative="1" as="geometry">
                        <mxPoint as="offset"/>
                        <mxPoint x="2692.4277677515947" y="4237.95353226712" as="targetPoint"/>
                        <mxPoint x="2139.999723675487" y="3719.9971238438284" as="sourcePoint"/>
                    </mxGeometry>
                </mxCell>
                <mxCell id="918" value="&lt;span style=&quot;font-family: &amp;#34;helvetica&amp;#34;&quot;&gt;REL_SOURCE&lt;/span&gt;" style="edgeStyle=none;html=1;" parent="1" source="917" target="308" edge="1">
                    <mxGeometry relative="1" as="geometry">
                        <Array as="points">
                            <mxPoint x="1180" y="-800"/>
                        </Array>
                    </mxGeometry>
                </mxCell>
                <mxCell id="919" value="&lt;span style=&quot;font-family: &amp;#34;helvetica&amp;#34;&quot;&gt;REL_TARGET&lt;/span&gt;" style="edgeStyle=none;html=1;" parent="1" source="917" target="308" edge="1">
                    <mxGeometry relative="1" as="geometry">
                        <Array as="points">
                            <mxPoint x="1180" y="-680"/>
                        </Array>
                    </mxGeometry>
                </mxCell>
                <mxCell id="917" value="&lt;b&gt;&lt;font style=&quot;font-size: 13px&quot; color=&quot;#000000&quot;&gt;RelDef&lt;br&gt;&lt;/font&gt;&lt;/b&gt;&lt;span style=&quot;color: rgb(0 , 0 , 0) ; font-size: 13px&quot;&gt;- name: &quot;&lt;/span&gt;&lt;span style=&quot;color: rgb(0 , 0 , 0) ; font-size: 13px&quot;&gt;NEXT&lt;/span&gt;&lt;span style=&quot;color: rgb(0 , 0 , 0) ; font-size: 13px&quot;&gt;&quot;&lt;/span&gt;&lt;b&gt;&lt;font style=&quot;font-size: 13px&quot; color=&quot;#000000&quot;&gt;&lt;br&gt;&lt;/font&gt;&lt;/b&gt;" style="ellipse;whiteSpace=wrap;html=1;aspect=fixed;direction=west;strokeColor=#9673a6;fillColor=#CCFF99;" parent="1" vertex="1">
                    <mxGeometry x="1240" y="-800" width="120" height="120" as="geometry"/>
                </mxCell>
                <mxCell id="920" value="DEFINES" style="edgeStyle=none;html=1;dashed=1;" parent="1" source="109" target="917" edge="1">
                    <mxGeometry relative="1" as="geometry">
                        <mxPoint x="3373.1722326996405" y="-1510.7488996767509" as="sourcePoint"/>
                        <mxPoint x="1126.8239527649484" y="-749.2623568694744" as="targetPoint"/>
                    </mxGeometry>
                </mxCell>
                <mxCell id="922" value="&lt;span style=&quot;font-family: &amp;#34;helvetica&amp;#34;&quot;&gt;REL_SOURCE&lt;/span&gt;" style="edgeStyle=none;html=1;" parent="1" source="921" target="863" edge="1">
                    <mxGeometry relative="1" as="geometry"/>
                </mxCell>
                <mxCell id="923" value="&lt;span style=&quot;font-family: &amp;#34;helvetica&amp;#34;&quot;&gt;REL_TARGET&lt;/span&gt;" style="edgeStyle=none;html=1;" parent="1" source="921" target="363" edge="1">
                    <mxGeometry relative="1" as="geometry">
                        <mxPoint x="2550" y="1740" as="targetPoint"/>
                    </mxGeometry>
                </mxCell>
                <mxCell id="921" value="&lt;b&gt;&lt;font style=&quot;font-size: 13px&quot; color=&quot;#000000&quot;&gt;RelDef&lt;br&gt;&lt;/font&gt;&lt;/b&gt;&lt;span style=&quot;color: rgb(0 , 0 , 0) ; font-size: 13px&quot;&gt;- name: &quot;ON_VALUE&quot;&lt;/span&gt;&lt;b&gt;&lt;font style=&quot;font-size: 13px&quot; color=&quot;#000000&quot;&gt;&lt;br&gt;&lt;/font&gt;&lt;/b&gt;" style="ellipse;whiteSpace=wrap;html=1;aspect=fixed;direction=west;strokeColor=#9673a6;fillColor=#CCFF99;" parent="1" vertex="1">
                    <mxGeometry x="1240" y="1400" width="120" height="120" as="geometry"/>
                </mxCell>
                <mxCell id="927" value="&lt;span style=&quot;font-family: &amp;#34;helvetica&amp;#34;&quot;&gt;REL_SOURCE&lt;/span&gt;" style="edgeStyle=none;html=1;" edge="1" parent="1" source="925" target="308">
                    <mxGeometry relative="1" as="geometry"/>
                </mxCell>
                <mxCell id="928" value="&lt;span style=&quot;font-family: &amp;#34;helvetica&amp;#34;&quot;&gt;REL_TARGET&lt;/span&gt;" style="edgeStyle=none;html=1;" edge="1" parent="1" source="925" target="171">
                    <mxGeometry relative="1" as="geometry">
                        <mxPoint x="2600" y="1750" as="targetPoint"/>
                    </mxGeometry>
                </mxCell>
                <mxCell id="925" value="&lt;b&gt;&lt;font style=&quot;font-size: 13px&quot; color=&quot;#000000&quot;&gt;RelDef&lt;br&gt;&lt;/font&gt;&lt;/b&gt;&lt;span style=&quot;color: rgb(0 , 0 , 0) ; font-size: 13px&quot;&gt;- name: &quot;&lt;/span&gt;&lt;span style=&quot;color: rgb(0 , 0 , 0) ; font-size: 13px&quot;&gt;HAS_INPUT&lt;/span&gt;&lt;span style=&quot;color: rgb(0 , 0 , 0) ; font-size: 13px&quot;&gt;&quot;&lt;/span&gt;&lt;b&gt;&lt;font style=&quot;font-size: 13px&quot; color=&quot;#000000&quot;&gt;&lt;br&gt;&lt;/font&gt;&lt;/b&gt;" style="ellipse;whiteSpace=wrap;html=1;aspect=fixed;direction=west;strokeColor=#9673a6;fillColor=#CCFF99;" vertex="1" parent="1">
                    <mxGeometry x="760" y="-800" width="120" height="120" as="geometry"/>
                </mxCell>
                <mxCell id="929" value="DEFINES" style="edgeStyle=none;html=1;dashed=1;" edge="1" parent="1" source="109" target="925">
                    <mxGeometry relative="1" as="geometry">
                        <mxPoint x="3371.851423376972" y="-1515.2100359458818" as="sourcePoint"/>
                        <mxPoint x="1128.1501118656142" y="-944.7839267454951" as="targetPoint"/>
                    </mxGeometry>
                </mxCell>
            </root>
        </mxGraphModel>
    </diagram>
</mxfile>